<svg width="56" height="56" viewBox="0 0 56 56" fill="none" xmlns="http://www.w3.org/2000/svg">
<path d="M0 5.4C0 2.41766 2.41766 0 5.4 0H48.6C51.5823 0 54 2.41766 54 5.4V48.6C54 51.5823 51.5823 54 48.6 54H5.4C2.41766 54 0 51.5823 0 48.6V5.4Z" fill="#323E48"/>
<path d="M23.0653 35.7102C23.8724 35.542 24.5786 35.2394 25.1504 34.8022C25.6548 34.3986 26.092 33.9278 26.4619 33.3561C27 32.4817 27.269 31.5064 27.269 30.4303C27.269 29.3541 27.0336 28.4797 26.5628 27.7399C26.092 27 25.3858 26.4619 24.4441 26.1256C25.0495 25.823 25.5203 25.453 25.8566 25.0831C26.4283 24.4105 26.6973 23.5025 26.6973 22.3591C26.6973 21.2157 26.4283 20.3413 25.8566 19.5342C24.915 18.2226 23.3343 17.5836 21.0811 17.55H12.1692V35.9792H20.4758C21.4174 35.9792 22.2918 35.912 23.0653 35.7438M15.8349 20.7449H19.8368C20.7112 20.7449 21.4511 20.8457 22.0228 21.0475C22.6954 21.3166 22.998 21.8883 22.998 22.7626C22.998 23.5361 22.7626 24.0742 22.2582 24.3769C21.7537 24.6796 21.1148 24.8477 20.3076 24.8477H15.8349V20.7449ZM15.8349 32.7844V27.8744H20.3749C21.182 27.8744 21.7874 27.9753 22.2246 28.1771C22.998 28.547 23.4016 29.186 23.4016 30.1612C23.4016 31.3047 22.998 32.0445 22.1909 32.4481C21.7537 32.6835 21.1148 32.7844 20.3076 32.7844H15.8349Z" fill="white"/>
<path d="M30.3968 34.7683C31.7757 35.878 33.3899 36.4497 35.2059 36.4497C37.3919 36.4497 39.107 35.7772 40.3177 34.4656C41.0912 33.6248 41.5283 32.8177 41.6292 32.0106H37.9972C37.7954 32.4142 37.5264 32.7168 37.2573 32.9522C36.7529 33.3558 36.0803 33.5912 35.2732 33.5912C34.4997 33.5912 33.8607 33.4231 33.3226 33.0868C32.4483 32.5487 31.9438 31.5734 31.9102 30.1946H41.831C41.831 29.0175 41.831 28.1095 41.6965 27.5042C41.5283 26.428 41.1584 25.4864 40.6203 24.6793C40.015 23.7712 39.2079 23.0987 38.2662 22.6615C37.3246 22.2243 36.2484 22.0225 35.0714 22.0225C33.0872 22.0225 31.4394 22.6615 30.195 23.9058C28.9507 25.1501 28.3118 26.9661 28.3118 29.3202C28.3118 31.8424 29.018 33.6585 30.3968 34.7683ZM32.9527 25.7218C33.4572 25.2173 34.1634 24.9483 35.0714 24.9483C35.9121 24.9483 36.6184 25.1837 37.1901 25.6882C37.7618 26.1926 38.0645 26.8988 38.1317 27.8405H31.9774C32.112 26.9661 32.4146 26.2599 32.9191 25.7218" fill="white"/>
<path d="M38.8377 18.6264H30.8337V20.476H38.8377V18.6264Z" fill="white"/>
<path d="M0 0H54H0ZM55.35 48.6C55.35 52.3279 52.3279 55.35 48.6 55.35H6.75C3.02208 55.35 0 52.3279 0 48.6C0 50.8368 2.41766 52.65 5.4 52.65H48.6C50.8368 52.65 52.65 50.8368 52.65 48.6H55.35ZM0 54V0V54ZM48.6 0C52.3279 0 55.35 3.02208 55.35 6.75V48.6C55.35 52.3279 52.3279 55.35 48.6 55.35V52.65C50.8368 52.65 52.65 50.8368 52.65 48.6V5.4C52.65 2.41766 50.8368 0 48.6 0Z" fill="#6BCFD8"/>
</svg>
