<svg width="56" height="56" viewBox="0 0 56 56" fill="none" xmlns="http://www.w3.org/2000/svg">
<path d="M0.600098 5.4C0.600098 2.41766 3.01776 0 6.0001 0H49.2001C52.1824 0 54.6001 2.41766 54.6001 5.4V48.6C54.6001 51.5823 52.1824 54 49.2001 54H6.0001C3.01776 54 0.600098 51.5823 0.600098 48.6V5.4Z" fill="#323E48"/>
<path d="M14.5489 22.4596H20.1423V40.4826H14.5489V22.4596ZM17.3456 13.5171C19.141 13.5171 20.5911 14.9673 20.5911 16.7627C20.5911 18.5581 19.141 20.0082 17.3456 20.0082C15.5502 20.0082 14.1001 18.5581 14.1001 16.7627C14.1001 14.9673 15.5502 13.5171 17.3456 13.5171ZM23.664 40.4826H29.2574V31.5747C29.2574 29.2269 29.7062 26.9481 32.6065 26.9481C35.5067 26.9481 35.5067 29.6412 35.5067 31.7128V40.4826H41.1001V30.6079C41.1001 25.7396 40.0643 22.0107 34.3674 22.0107C31.6397 22.0107 29.8098 23.4954 29.0502 24.911H28.9812V22.4596H23.595V40.4826H23.664Z" fill="white"/>
<path d="M0.600098 0H54.6001H0.600098ZM55.9501 48.6C55.9501 52.3279 52.928 55.35 49.2001 55.35H7.3501C3.62218 55.35 0.600098 52.3279 0.600098 48.6C0.600098 50.8368 3.01776 52.65 6.0001 52.65H49.2001C51.4369 52.65 53.2501 50.8368 53.2501 48.6H55.9501ZM0.600098 54V0V54ZM49.2001 0C52.928 0 55.9501 3.02208 55.9501 6.75V48.6C55.9501 52.3279 52.928 55.35 49.2001 55.35V52.65C51.4369 52.65 53.2501 50.8368 53.2501 48.6V5.4C53.2501 2.41766 51.4369 0 49.2001 0Z" fill="#6BCFD8"/>
</svg>
