<svg width="56" height="56" viewBox="0 0 56 56" fill="none" xmlns="http://www.w3.org/2000/svg">
<path d="M0.199951 5.4C0.199951 2.41766 2.61761 0 5.59995 0H48.7999C51.7823 0 54.2 2.41766 54.2 5.4V48.6C54.2 51.5823 51.7823 54 48.7999 54H5.59995C2.61761 54 0.199951 51.5823 0.199951 48.6V5.4Z" fill="#323E48"/>
<path d="M36.7406 15.3303C33.0018 15.2087 30.4789 17.3061 29.1415 21.6528C29.8406 21.3488 30.5093 21.1968 31.1476 21.1968C32.5155 21.1968 33.1234 21.9871 32.9714 23.507C32.8802 24.4493 32.2723 25.7867 31.1476 27.5801C30.023 29.3735 29.1719 30.255 28.5943 30.255C27.8648 30.255 27.1961 28.8872 26.5881 26.1211C26.3754 25.3004 26.0106 23.2638 25.4939 19.9506C25.0379 16.9109 23.7309 15.4823 21.6335 15.6646C20.752 15.7558 19.4145 16.5461 17.6211 18.0964C16.3445 19.2818 15.007 20.4369 13.7 21.6224L14.9766 23.2638C16.1925 22.4127 16.8916 21.9871 17.1044 21.9871C18.0467 21.9871 18.8978 23.4462 19.7185 26.3339C20.448 29.0088 21.1775 31.6533 21.9071 34.3282C23.0013 37.2463 24.3084 38.6749 25.889 38.6749C28.4423 38.6749 31.5428 36.304 35.1904 31.5317C38.7468 26.9722 40.5706 23.3854 40.6922 20.7409C40.8138 17.2149 39.5067 15.4215 36.7406 15.3303Z" fill="white"/>
<path d="M0.199951 0H54.2H0.199951ZM55.5499 48.6C55.5499 52.3279 52.5279 55.35 48.7999 55.35H6.94995C3.22203 55.35 0.199951 52.3279 0.199951 48.6C0.199951 50.8368 2.61761 52.65 5.59995 52.65H48.7999C51.0367 52.65 52.85 50.8368 52.85 48.6H55.5499ZM0.199951 54V0V54ZM48.7999 0C52.5279 0 55.5499 3.02208 55.5499 6.75V48.6C55.5499 52.3279 52.5279 55.35 48.7999 55.35V52.65C51.0367 52.65 52.85 50.8368 52.85 48.6V5.4C52.85 2.41766 51.0367 0 48.7999 0Z" fill="#6BCFD8"/>
</svg>
