<svg width="64" height="65" viewBox="0 0 64 65" fill="none" xmlns="http://www.w3.org/2000/svg">
<g filter="url(#filter0_d_322_16822)">
<rect x="4" y="4.06641" width="50" height="50" rx="3.33333" fill="#FFD02B" shape-rendering="crispEdges"/>
<mask id="mask0_322_16822" style="mask-type:alpha" maskUnits="userSpaceOnUse" x="9" y="9" width="40" height="41">
<rect x="9" y="9.06641" width="40" height="40" fill="#D9D9D9"/>
</mask>
<g mask="url(#mask0_322_16822)">
<path d="M29 43.249L22.9263 37.1754L24.6667 35.419L27.75 38.4767V30.7972C27.75 29.8271 27.405 28.9969 26.7148 28.3068C26.0246 27.6166 25.1945 27.2715 24.2244 27.2715H14.7052C13.874 27.2715 13.164 26.9772 12.5754 26.3885C11.9867 25.7999 11.6924 25.0899 11.6924 24.2587V14.8998H14.1923V24.2587C14.1923 24.4083 14.2404 24.5312 14.3366 24.6274C14.4327 24.7235 14.5556 24.7716 14.7052 24.7716H24.2244C25.2137 24.7716 26.1229 24.989 26.9519 25.4238C27.781 25.8587 28.4637 26.4447 29 27.1819C29.5363 26.4447 30.219 25.8587 31.0481 25.4238C31.8771 24.989 32.7863 24.7716 33.7756 24.7716H43.2948C43.4444 24.7716 43.5673 24.7235 43.6634 24.6274C43.7596 24.5312 43.8077 24.4083 43.8077 24.2587V14.8998H46.3076V24.2587C46.3076 25.0899 46.0133 25.7999 45.4246 26.3885C44.836 26.9772 44.126 27.2715 43.2948 27.2715H33.7756C32.8055 27.2715 31.9754 27.6166 31.2853 28.3068C30.5951 28.9969 30.25 29.8271 30.25 30.7972V38.4607L33.3077 35.419L35.0737 37.1754L29 43.249Z" fill="#1F262C"/>
</g>
</g>
<defs>
<filter id="filter0_d_322_16822" x="0.666667" y="0.733073" width="63.3333" height="63.3333" filterUnits="userSpaceOnUse" color-interpolation-filters="sRGB">
<feFlood flood-opacity="0" result="BackgroundImageFix"/>
<feColorMatrix in="SourceAlpha" type="matrix" values="0 0 0 0 0 0 0 0 0 0 0 0 0 0 0 0 0 0 127 0" result="hardAlpha"/>
<feOffset dx="3.33333" dy="3.33333"/>
<feGaussianBlur stdDeviation="3.33333"/>
<feComposite in2="hardAlpha" operator="out"/>
<feColorMatrix type="matrix" values="0 0 0 0 0.249688 0 0 0 0 0.278083 0 0 0 0 0.391667 0 0 0 0.16 0"/>
<feBlend mode="normal" in2="BackgroundImageFix" result="effect1_dropShadow_322_16822"/>
<feBlend mode="normal" in="SourceGraphic" in2="effect1_dropShadow_322_16822" result="shape"/>
</filter>
</defs>
</svg>
