<svg width="64" height="64" viewBox="0 0 64 64" fill="none" xmlns="http://www.w3.org/2000/svg">
<g filter="url(#filter0_d_416_18023)">
<rect x="4" y="4" width="50" height="50" rx="3.33333" fill="#FFD02B" shape-rendering="crispEdges"/>
<mask id="mask0_416_18023" style="mask-type:alpha" maskUnits="userSpaceOnUse" x="9" y="9" width="40" height="40">
<rect x="9" y="9" width="40" height="40" fill="#D9D9D9"/>
</mask>
<g mask="url(#mask0_416_18023)">
<path d="M35.8842 42.1665L34.3522 40.6345L36.7272 38.2595L34.3522 35.8845L35.8842 34.3525L38.2592 36.7275L40.6342 34.3525L42.1663 35.8845L39.7913 38.2595L42.1663 40.6345L40.6342 42.1665L38.2592 39.7915L35.8842 42.1665ZM20.4163 39.9999C21.0787 39.9999 21.6471 39.7627 22.1215 39.2883C22.5958 38.814 22.833 38.2456 22.833 37.5832C22.833 36.9208 22.5958 36.3524 22.1215 35.878C21.6471 35.4037 21.0787 35.1665 20.4163 35.1665C19.7539 35.1665 19.1855 35.4037 18.7112 35.878C18.2368 36.3524 17.9996 36.9208 17.9996 37.5832C17.9996 38.2456 18.2368 38.814 18.7112 39.2883C19.1855 39.7627 19.7539 39.9999 20.4163 39.9999ZM20.4163 42.1665C19.145 42.1665 18.0633 41.7204 17.1712 40.8283C16.2791 39.9363 15.833 38.8545 15.833 37.5832C15.833 36.3118 16.2791 35.2301 17.1712 34.338C18.0633 33.4459 19.145 32.9999 20.4163 32.9999C21.4227 32.9999 22.3212 33.2953 23.1118 33.8861C23.9024 34.4769 24.4441 35.2446 24.7368 36.189C25.7048 35.9796 26.5034 35.4769 27.1327 34.681C27.762 33.885 28.0766 32.9914 28.0766 31.9999V25.7403C28.0766 23.7745 28.7657 22.1025 30.1439 20.7243C31.5221 19.3461 33.1941 18.657 35.1599 18.657H37.8523L34.6439 15.4486L36.2592 13.8333L42.1663 19.7403L36.2592 25.6473L34.6439 24.032L37.8362 20.8236H35.1599C33.7924 20.8236 32.631 21.3012 31.6759 22.2563C30.7208 23.2114 30.2432 24.3728 30.2432 25.7403V31.9999C30.2432 33.5832 29.7395 34.979 28.732 36.1873C27.7245 37.3957 26.4515 38.1409 24.9131 38.4229C24.7101 39.5126 24.1909 40.409 23.3554 41.112C22.52 41.815 21.5403 42.1665 20.4163 42.1665ZM17.365 23.6473L15.833 22.1153L18.208 19.7403L15.833 17.3653L17.365 15.8333L19.74 18.2083L22.115 15.8333L23.647 17.3653L21.272 19.7403L23.647 22.1153L22.115 23.6473L19.74 21.2723L17.365 23.6473Z" fill="#1F262C"/>
</g>
</g>
<defs>
<filter id="filter0_d_416_18023" x="0.666667" y="0.666667" width="63.3333" height="63.3333" filterUnits="userSpaceOnUse" color-interpolation-filters="sRGB">
<feFlood flood-opacity="0" result="BackgroundImageFix"/>
<feColorMatrix in="SourceAlpha" type="matrix" values="0 0 0 0 0 0 0 0 0 0 0 0 0 0 0 0 0 0 127 0" result="hardAlpha"/>
<feOffset dx="3.33333" dy="3.33333"/>
<feGaussianBlur stdDeviation="3.33333"/>
<feComposite in2="hardAlpha" operator="out"/>
<feColorMatrix type="matrix" values="0 0 0 0 0.249688 0 0 0 0 0.278083 0 0 0 0 0.391667 0 0 0 0.16 0"/>
<feBlend mode="normal" in2="BackgroundImageFix" result="effect1_dropShadow_416_18023"/>
<feBlend mode="normal" in="SourceGraphic" in2="effect1_dropShadow_416_18023" result="shape"/>
</filter>
</defs>
</svg>
