<svg width="64" height="64" viewBox="0 0 64 64" fill="none" xmlns="http://www.w3.org/2000/svg">
<g filter="url(#filter0_d_402_17779)">
<rect x="4" y="4" width="50" height="50" rx="3.33333" fill="#FFD02B" shape-rendering="crispEdges"/>
<mask id="mask0_402_17779" style="mask-type:alpha" maskUnits="userSpaceOnUse" x="9" y="9" width="40" height="40">
<rect x="9" y="9" width="40" height="40" fill="#D9D9D9"/>
</mask>
<g mask="url(#mask0_402_17779)">
<path d="M9.83301 38.6474V36.7821C9.83301 35.4509 10.426 34.4012 11.6118 33.6331C12.7977 32.8649 14.4045 32.4808 16.4323 32.4808C16.7955 32.4808 17.1748 32.5043 17.5701 32.5514C17.9654 32.5984 18.3768 32.6635 18.8041 32.7469C18.396 33.2383 18.0787 33.7912 17.8522 34.4055C17.6257 35.0198 17.5125 35.6285 17.5125 36.2315V38.6474H9.83301ZM19.833 38.6474V36.5225C19.833 35.8572 20.0103 35.2491 20.365 34.6982C20.7197 34.1473 21.1984 33.7426 21.8009 33.484C22.959 32.9477 24.1348 32.5385 25.3281 32.2565C26.5215 31.9744 27.7367 31.8334 28.9737 31.8334C30.2346 31.8334 31.4616 31.9744 32.655 32.2565C33.8484 32.5385 35.0241 32.9477 36.1823 33.484C36.7848 33.7426 37.2661 34.1473 37.6261 34.6982C37.9862 35.2491 38.1662 35.8572 38.1662 36.5225V38.6474H19.833ZM40.4867 38.6474V36.1976C40.4867 35.5444 40.3708 34.9288 40.139 34.3509C39.9071 33.773 39.5872 33.2383 39.1791 32.7469C39.6726 32.6635 40.1101 32.5984 40.4916 32.5514C40.873 32.5043 41.2367 32.4808 41.5829 32.4808C43.6107 32.4808 45.2148 32.8676 46.3954 33.6411C47.5759 34.4146 48.1662 35.4616 48.1662 36.7821V38.6474H40.4867ZM22.0028 36.4808H35.9804V36.3045C35.8928 35.7148 35.1278 35.1833 33.6855 34.71C32.2432 34.2367 30.6812 34 28.9996 34C27.318 34 25.756 34.2367 24.3137 34.71C22.8714 35.1833 22.1011 35.7148 22.0028 36.3045V36.4808ZM16.4369 30.5289C17.3954 30.5289 18.2144 30.284 18.8939 29.7941C19.5734 29.3041 19.9131 28.7152 19.9131 28.0273C19.9131 27.3318 19.574 26.7378 18.8958 26.2453C18.2176 25.7528 17.4023 25.5065 16.4498 25.5065C15.4552 25.5065 14.6235 25.7495 13.9547 26.2354C13.2859 26.7212 12.9515 27.3172 12.9515 28.0234C12.9515 28.7087 13.2855 29.2976 13.9535 29.7901C14.6216 30.2826 15.4494 30.5289 16.4369 30.5289ZM41.5918 30.5289C42.5581 30.5289 43.3783 30.2823 44.0525 29.789C44.7266 29.2958 45.0637 28.7101 45.0637 28.032C45.0637 27.3334 44.7263 26.7378 44.0514 26.2453C43.3765 25.7528 42.5606 25.5065 41.6036 25.5065C40.6176 25.5065 39.7875 25.7495 39.1133 26.2354C38.4392 26.7212 38.1021 27.3156 38.1021 28.0186C38.1021 28.7138 38.4365 29.306 39.1054 29.7951C39.7742 30.2843 40.603 30.5289 41.5918 30.5289ZM28.9846 29.8334C27.798 29.8334 26.7827 29.4127 25.9387 28.5714C25.0947 27.7301 24.6727 26.7084 24.6727 25.5065C24.6727 24.3084 25.0934 23.2877 25.9347 22.4445C26.776 21.6013 27.7977 21.1797 28.9996 21.1797C30.1978 21.1797 31.2185 21.6007 32.0617 22.4429C32.9049 23.285 33.3265 24.3112 33.3265 25.5215C33.3265 26.7081 32.9054 27.7234 32.0633 28.5674C31.2212 29.4114 30.1949 29.8334 28.9846 29.8334ZM29.0076 27.6668C29.6117 27.6668 30.1214 27.4565 30.5368 27.0357C30.9522 26.615 31.1598 26.1026 31.1598 25.4985C31.1598 24.8945 30.9528 24.3847 30.5388 23.9694C30.1247 23.554 29.6117 23.3463 28.9996 23.3463C28.4009 23.3463 27.8911 23.5533 27.4704 23.9674C27.0497 24.3814 26.8393 24.8945 26.8393 25.5065C26.8393 26.1052 27.0497 26.615 27.4704 27.0357C27.8911 27.4565 28.4035 27.6668 29.0076 27.6668Z" fill="#1F262C"/>
</g>
</g>
<defs>
<filter id="filter0_d_402_17779" x="0.666667" y="0.666667" width="63.3333" height="63.3333" filterUnits="userSpaceOnUse" color-interpolation-filters="sRGB">
<feFlood flood-opacity="0" result="BackgroundImageFix"/>
<feColorMatrix in="SourceAlpha" type="matrix" values="0 0 0 0 0 0 0 0 0 0 0 0 0 0 0 0 0 0 127 0" result="hardAlpha"/>
<feOffset dx="3.33333" dy="3.33333"/>
<feGaussianBlur stdDeviation="3.33333"/>
<feComposite in2="hardAlpha" operator="out"/>
<feColorMatrix type="matrix" values="0 0 0 0 0.249688 0 0 0 0 0.278083 0 0 0 0 0.391667 0 0 0 0.16 0"/>
<feBlend mode="normal" in2="BackgroundImageFix" result="effect1_dropShadow_402_17779"/>
<feBlend mode="normal" in="SourceGraphic" in2="effect1_dropShadow_402_17779" result="shape"/>
</filter>
</defs>
</svg>
