<svg width="64" height="64" viewBox="0 0 64 64" fill="none" xmlns="http://www.w3.org/2000/svg">
<g filter="url(#filter0_d_416_18109)">
<rect x="4" y="3.5" width="50" height="50" rx="3.33333" fill="#FFD02B" shape-rendering="crispEdges"/>
<mask id="mask0_416_18109" style="mask-type:alpha" maskUnits="userSpaceOnUse" x="9" y="8" width="40" height="41">
<rect x="9" y="8.5" width="40" height="40" fill="#D9D9D9"/>
</mask>
<g mask="url(#mask0_416_18109)">
<path d="M29.4259 33.6538C31.1673 33.6538 32.6572 33.0929 33.8954 31.9711C35.1337 30.8493 35.7528 29.485 35.7528 27.8782C35.7528 26.4765 35.3073 25.2858 34.4163 24.3061C33.5252 23.3264 32.4323 22.8366 31.1374 22.8366C30.0028 22.8366 29.0349 23.2025 28.2336 23.9343C27.4324 24.6662 27.0317 25.5631 27.0317 26.625C27.0317 27.0887 27.1252 27.5385 27.3122 27.9743C27.4991 28.4102 27.7657 28.8152 28.1118 29.1891L29.9419 27.4231C29.8052 27.3248 29.7026 27.2126 29.6342 27.0866C29.5659 26.9605 29.5317 26.8205 29.5317 26.6667C29.5317 26.3184 29.6754 26.0166 29.9628 25.7612C30.2501 25.5059 30.6417 25.3782 31.1374 25.3782C31.7357 25.3782 32.2421 25.618 32.6567 26.0978C33.0712 26.5775 33.2785 27.1848 33.2785 27.9199C33.2785 28.8131 32.9163 29.5796 32.192 30.2196C31.4676 30.8595 30.5595 31.1795 29.4676 31.1795C28.1513 31.1795 27.0285 30.6517 26.099 29.5962C25.1695 28.5406 24.7048 27.2329 24.7048 25.6731C24.7048 24.8675 24.8602 24.094 25.1711 23.3526C25.482 22.6111 25.9259 21.9519 26.5028 21.375L24.7048 19.593C23.8907 20.39 23.2635 21.3099 22.8234 22.3526C22.3832 23.3953 22.1631 24.4883 22.1631 25.6314C22.1631 27.8515 22.8661 29.7436 24.2721 31.3077C25.6781 32.8718 27.396 33.6538 29.4259 33.6538ZM19.833 44.3333V37.6154C18.2497 36.1709 17.0205 34.5155 16.1455 32.649C15.2705 30.7826 14.833 28.8387 14.833 26.8173C14.833 22.8857 16.2112 19.5444 18.9676 16.7933C21.724 14.0422 25.068 12.6667 28.9996 12.6667C32.2368 12.6667 35.1315 13.6341 37.6839 15.569C40.2362 17.5038 41.8938 20.0139 42.6566 23.0994L44.5989 30.7916C44.7271 31.266 44.6406 31.6971 44.3393 32.0849C44.038 32.4727 43.6363 32.6666 43.1342 32.6666H39.8329V37.9871C39.8329 38.8183 39.5386 39.5283 38.9499 40.1169C38.3612 40.7056 37.6513 41 36.8201 41H33.1663V44.3333H30.6663V38.5H36.8201C36.9697 38.5 37.0925 38.4519 37.1887 38.3558C37.2849 38.2596 37.333 38.1367 37.333 37.9871V30.1667H41.833L40.2496 23.7083C39.6107 21.1699 38.2443 19.1116 36.1503 17.5337C34.0563 15.9557 31.6727 15.1667 28.9996 15.1667C25.7774 15.1667 23.0274 16.2943 20.7496 18.5497C18.4719 20.805 17.333 23.5438 17.333 26.7661C17.333 28.4327 17.6732 30.0134 18.3538 31.508C19.0344 33.0027 19.9996 34.3333 21.2496 35.5L22.333 36.5V44.3333H19.833Z" fill="#1F262C"/>
</g>
</g>
<defs>
<filter id="filter0_d_416_18109" x="0.666667" y="0.166667" width="63.3333" height="63.3333" filterUnits="userSpaceOnUse" color-interpolation-filters="sRGB">
<feFlood flood-opacity="0" result="BackgroundImageFix"/>
<feColorMatrix in="SourceAlpha" type="matrix" values="0 0 0 0 0 0 0 0 0 0 0 0 0 0 0 0 0 0 127 0" result="hardAlpha"/>
<feOffset dx="3.33333" dy="3.33333"/>
<feGaussianBlur stdDeviation="3.33333"/>
<feComposite in2="hardAlpha" operator="out"/>
<feColorMatrix type="matrix" values="0 0 0 0 0.249688 0 0 0 0 0.278083 0 0 0 0 0.391667 0 0 0 0.16 0"/>
<feBlend mode="normal" in2="BackgroundImageFix" result="effect1_dropShadow_416_18109"/>
<feBlend mode="normal" in="SourceGraphic" in2="effect1_dropShadow_416_18109" result="shape"/>
</filter>
</defs>
</svg>
