<svg width="101" height="101" viewBox="0 0 101 101" fill="none" xmlns="http://www.w3.org/2000/svg">
<g filter="url(#filter0_d_423_18231)">
<rect x="5.5" y="5.5" width="79" height="79" rx="5.26667" fill="#F0F1F2" shape-rendering="crispEdges"/>
<mask id="mask0_423_18231" style="mask-type:alpha" maskUnits="userSpaceOnUse" x="13" y="13" width="64" height="64">
<rect x="13.4004" y="13.3999" width="63.2" height="63.2" fill="#D9D9D9"/>
</mask>
<g mask="url(#mask0_423_18231)">
<path d="M42.6297 65.7522C38.305 65.1547 34.6783 63.2202 31.7496 59.9488C28.8208 56.6774 27.3564 52.7916 27.3564 48.2913C27.3564 45.8335 27.819 43.5539 28.744 41.4523C29.6691 39.3507 30.9081 37.5032 32.461 35.9096L34.8816 38.3303C33.6156 39.5861 32.6154 41.0792 31.8812 42.8094C31.1469 44.5397 30.7797 46.367 30.7797 48.2913C30.7797 51.8463 31.9141 54.9101 34.1828 57.4826C36.4515 60.0552 39.2672 61.6487 42.6297 62.2632V65.7522ZM47.3697 65.8029V62.3138C50.7323 61.6757 53.5479 60.0636 55.8167 57.4776C58.0854 54.8915 59.2197 51.8294 59.2197 48.2913C59.2197 44.3413 57.8372 40.9838 55.0722 38.2188C52.3072 35.4538 48.9497 34.0713 44.9997 34.0713H43.8045L47.4912 37.758L45.0453 40.1381L37.2669 32.3597L45.0453 24.5813L47.4912 27.0272L43.8703 30.648H44.9997C49.895 30.648 54.0593 32.3648 57.4928 35.7982C60.9262 39.2317 62.643 43.396 62.643 48.2913C62.643 52.8084 61.1744 56.7052 58.2372 59.9817C55.3 63.2582 51.6775 65.1986 47.3697 65.8029Z" fill="#323E48"/>
</g>
</g>
<defs>
<filter id="filter0_d_423_18231" x="0.233333" y="0.233333" width="100.067" height="100.067" filterUnits="userSpaceOnUse" color-interpolation-filters="sRGB">
<feFlood flood-opacity="0" result="BackgroundImageFix"/>
<feColorMatrix in="SourceAlpha" type="matrix" values="0 0 0 0 0 0 0 0 0 0 0 0 0 0 0 0 0 0 127 0" result="hardAlpha"/>
<feOffset dx="5.26667" dy="5.26667"/>
<feGaussianBlur stdDeviation="5.26667"/>
<feComposite in2="hardAlpha" operator="out"/>
<feColorMatrix type="matrix" values="0 0 0 0 0.249688 0 0 0 0 0.278083 0 0 0 0 0.391667 0 0 0 0.16 0"/>
<feBlend mode="normal" in2="BackgroundImageFix" result="effect1_dropShadow_423_18231"/>
<feBlend mode="normal" in="SourceGraphic" in2="effect1_dropShadow_423_18231" result="shape"/>
</filter>
</defs>
</svg>
