<svg width="64" height="65" viewBox="0 0 64 65" fill="none" xmlns="http://www.w3.org/2000/svg">
<g filter="url(#filter0_d_416_18014)">
<rect x="4" y="4.00363" width="50" height="50" rx="3.33333" fill="#FFD02B" shape-rendering="crispEdges"/>
<mask id="mask0_416_18014" style="mask-type:alpha" maskUnits="userSpaceOnUse" x="9" y="9" width="40" height="41">
<rect x="9" y="9.00363" width="40" height="40" fill="#D9D9D9"/>
</mask>
<g mask="url(#mask0_416_18014)">
<path d="M34.417 45.2536V41.2472L22.4298 35.2536H14.417V26.087H21.3593L26.0837 20.6639V12.7537H35.2502V21.9202H28.308L23.5836 27.3434V33.01L34.417 38.4267V36.087H43.5836V45.2536L34.417 45.2536ZM28.5836 19.4203H32.7503V15.2535H28.5836V19.4203ZM16.9169 32.7536H21.0837V28.5869H16.9169V32.7536ZM36.9169 42.7536H41.0837V38.5869H36.9169V42.7536Z" fill="#1F262C"/>
</g>
</g>
<defs>
<filter id="filter0_d_416_18014" x="0.666667" y="0.670298" width="63.3333" height="63.3333" filterUnits="userSpaceOnUse" color-interpolation-filters="sRGB">
<feFlood flood-opacity="0" result="BackgroundImageFix"/>
<feColorMatrix in="SourceAlpha" type="matrix" values="0 0 0 0 0 0 0 0 0 0 0 0 0 0 0 0 0 0 127 0" result="hardAlpha"/>
<feOffset dx="3.33333" dy="3.33333"/>
<feGaussianBlur stdDeviation="3.33333"/>
<feComposite in2="hardAlpha" operator="out"/>
<feColorMatrix type="matrix" values="0 0 0 0 0.249688 0 0 0 0 0.278083 0 0 0 0 0.391667 0 0 0 0.16 0"/>
<feBlend mode="normal" in2="BackgroundImageFix" result="effect1_dropShadow_416_18014"/>
<feBlend mode="normal" in="SourceGraphic" in2="effect1_dropShadow_416_18014" result="shape"/>
</filter>
</defs>
</svg>
