<svg width="45" height="45" viewBox="0 0 45 45" fill="none" xmlns="http://www.w3.org/2000/svg">
<g filter="url(#filter0_d_318_16736)">
<rect x="4" y="4" width="31" height="31" rx="3.33333" fill="#F0F1F2" shape-rendering="crispEdges"/>
<mask id="mask0_318_16736" style="mask-type:alpha" maskUnits="userSpaceOnUse" x="6" y="6" width="27" height="27">
<rect x="6" y="6" width="27" height="27" fill="#D9D9D9"/>
</mask>
<g mask="url(#mask0_318_16736)">
<path d="M12.8605 25.2008C13.873 24.5099 14.9288 23.9965 16.0278 23.6604C17.1269 23.3244 18.2843 23.1563 19.5002 23.1563C20.716 23.1563 21.8735 23.3244 22.9725 23.6604C24.0715 23.9965 25.1273 24.5099 26.1398 25.2008C26.8393 24.432 27.3701 23.5609 27.7321 22.5873C28.0942 21.6138 28.2752 20.5847 28.2752 19.5C28.2752 17.0686 27.4199 14.9983 25.7093 13.289C23.9988 11.5797 21.9269 10.725 19.4937 10.725C17.0605 10.725 14.9908 11.5797 13.2845 13.289C11.5783 14.9983 10.7252 17.0686 10.7252 19.5C10.7252 20.5847 10.9062 21.6138 11.2682 22.5873C11.6302 23.5609 12.161 24.432 12.8605 25.2008ZM19.5005 21.2438C18.4546 21.2438 17.565 20.8772 16.8316 20.144C16.0981 19.4108 15.7314 18.5213 15.7314 17.4754C15.7314 16.4295 16.098 15.5398 16.8312 14.8064C17.5644 14.073 18.454 13.7063 19.4998 13.7063C20.5457 13.7063 21.4354 14.0729 22.1688 14.8061C22.9022 15.5393 23.2689 16.4288 23.2689 17.4747C23.2689 18.5206 22.9023 19.4103 22.1691 20.1437C21.4359 20.8771 20.5464 21.2438 19.5005 21.2438ZM19.5079 29.7375C18.0936 29.7375 16.7645 29.4725 15.5205 28.9424C14.2765 28.4124 13.1876 27.6804 12.2537 26.7465C11.3198 25.8126 10.5878 24.7241 10.0578 23.4809C9.52773 22.2377 9.2627 20.9064 9.2627 19.4872C9.2627 18.0679 9.52773 16.7409 10.0578 15.5063C10.5878 14.2717 11.3198 13.1875 12.2537 12.2536C13.1876 11.3197 14.2761 10.5877 15.5193 10.0577C16.7625 9.52761 18.0938 9.26257 19.513 9.26257C20.9323 9.26257 22.2593 9.52761 23.4939 10.0577C24.7285 10.5877 25.8128 11.3197 26.7467 12.2536C27.6805 13.1875 28.4125 14.2738 28.9425 15.5126C29.4726 16.7514 29.7376 18.078 29.7376 19.4923C29.7376 20.9066 29.4726 22.2357 28.9425 23.4797C28.4125 24.7237 27.6805 25.8126 26.7467 26.7465C25.8128 27.6804 24.7264 28.4124 23.4876 28.9424C22.2488 29.4725 20.9222 29.7375 19.5079 29.7375ZM19.5002 28.275C20.4968 28.275 21.4758 28.1023 22.4371 27.7569C23.3984 27.4115 24.2728 26.9171 25.0603 26.2738C24.254 25.746 23.3811 25.3381 22.4414 25.0504C21.5017 24.7626 20.5213 24.6188 19.5002 24.6188C18.479 24.6188 17.4921 24.7562 16.5394 25.0309C15.5868 25.3057 14.7203 25.72 13.9401 26.2738C14.7276 26.9171 15.602 27.4115 16.5633 27.7569C17.5246 28.1023 18.5035 28.275 19.5002 28.275ZM19.5002 19.7813C20.1348 19.7813 20.6778 19.5556 21.1293 19.1042C21.5807 18.6527 21.8064 18.1097 21.8064 17.475C21.8064 16.8404 21.5807 16.2974 21.1293 15.8459C20.6778 15.3945 20.1348 15.1688 19.5002 15.1688C18.8656 15.1688 18.3225 15.3945 17.8711 15.8459C17.4196 16.2974 17.1939 16.8404 17.1939 17.475C17.1939 18.1097 17.4196 18.6527 17.8711 19.1042C18.3225 19.5556 18.8656 19.7813 19.5002 19.7813Z" fill="#323E48"/>
</g>
</g>
<defs>
<filter id="filter0_d_318_16736" x="0.666667" y="0.666667" width="44.3333" height="44.3333" filterUnits="userSpaceOnUse" color-interpolation-filters="sRGB">
<feFlood flood-opacity="0" result="BackgroundImageFix"/>
<feColorMatrix in="SourceAlpha" type="matrix" values="0 0 0 0 0 0 0 0 0 0 0 0 0 0 0 0 0 0 127 0" result="hardAlpha"/>
<feOffset dx="3.33333" dy="3.33333"/>
<feGaussianBlur stdDeviation="3.33333"/>
<feComposite in2="hardAlpha" operator="out"/>
<feColorMatrix type="matrix" values="0 0 0 0 0.249688 0 0 0 0 0.278083 0 0 0 0 0.391667 0 0 0 0.16 0"/>
<feBlend mode="normal" in2="BackgroundImageFix" result="effect1_dropShadow_318_16736"/>
<feBlend mode="normal" in="SourceGraphic" in2="effect1_dropShadow_318_16736" result="shape"/>
</filter>
</defs>
</svg>
