<svg width="258" height="48" viewBox="0 0 258 48" fill="none" xmlns="http://www.w3.org/2000/svg">
<g filter="url(#filter0_d_316_16717)">
<rect x="4" y="4" width="34" height="34" rx="3.33333" fill="#FFC600" shape-rendering="crispEdges"/>
<mask id="mask0_316_16717" style="mask-type:alpha" maskUnits="userSpaceOnUse" x="9" y="9" width="24" height="24">
<rect x="9" y="9" width="24" height="24" fill="#D9D9D9"/>
</mask>
<g mask="url(#mask0_316_16717)">
<path d="M21.0002 23.75C21.8438 23.75 22.6101 23.5496 23.2992 23.149C23.9883 22.7484 24.5431 22.2179 24.9636 21.5577C24.4124 21.132 23.8005 20.8077 23.1281 20.5846C22.4556 20.3615 21.7463 20.25 21.0002 20.25C20.254 20.25 19.5448 20.3615 18.8723 20.5846C18.1999 20.8077 17.588 21.132 17.0368 21.5577C17.4573 22.2179 18.0121 22.7484 18.7012 23.149C19.3903 23.5496 20.1566 23.75 21.0002 23.75ZM21.0002 18.75C21.4861 18.75 21.8992 18.5798 22.2396 18.2394C22.58 17.899 22.7502 17.4859 22.7502 17C22.7502 16.5141 22.58 16.1009 22.2396 15.7606C21.8992 15.4202 21.4861 15.25 21.0002 15.25C20.5143 15.25 20.1012 15.4202 19.7608 15.7606C19.4204 16.1009 19.2502 16.5141 19.2502 17C19.2502 17.4859 19.4204 17.899 19.7608 18.2394C20.1012 18.5798 20.5143 18.75 21.0002 18.75ZM21.0002 28.5135C22.9566 26.7622 24.4537 25.0824 25.4915 23.474C26.5294 21.8657 27.0483 20.457 27.0483 19.2481C27.0483 17.425 26.4691 15.9263 25.3108 14.7519C24.1524 13.5775 22.7156 12.9904 21.0002 12.9904C19.2848 12.9904 17.848 13.5775 16.6896 14.7519C15.5313 15.9263 14.9521 17.425 14.9521 19.2481C14.9521 20.457 15.471 21.8657 16.5088 23.474C17.5467 25.0824 19.0438 26.7622 21.0002 28.5135ZM21.0002 30.5096C18.4835 28.3288 16.5964 26.2993 15.3387 24.4211C14.081 22.5429 13.4521 20.8186 13.4521 19.2481C13.4521 16.9404 14.1986 15.0721 15.6916 13.6433C17.1845 12.2144 18.954 11.5 21.0002 11.5C23.0463 11.5 24.8159 12.2144 26.3088 13.6433C27.8018 15.0721 28.5482 16.9404 28.5482 19.2481C28.5482 20.8186 27.9194 22.5429 26.6617 24.4211C25.404 26.2993 23.5168 28.3288 21.0002 30.5096Z" fill="#323E48"/>
</g>
</g>
<path d="M70.472 29.288C69.176 29.288 68.024 29.016 67.016 28.472C66.024 27.928 65.248 27.184 64.688 26.24C64.144 25.28 63.872 24.192 63.872 22.976V11.12H66.248V22.928C66.248 23.744 66.424 24.472 66.776 25.112C67.144 25.736 67.64 26.224 68.264 26.576C68.904 26.928 69.64 27.104 70.472 27.104C71.304 27.104 72.032 26.928 72.656 26.576C73.296 26.224 73.792 25.736 74.144 25.112C74.512 24.472 74.696 23.744 74.696 22.928V11.12H77.072V22.976C77.072 24.192 76.792 25.28 76.232 26.24C75.688 27.184 74.92 27.928 73.928 28.472C72.936 29.016 71.784 29.288 70.472 29.288ZM86.8565 29.288C85.7205 29.288 84.6805 29.08 83.7365 28.664C82.7925 28.232 81.9925 27.648 81.3365 26.912C80.6805 26.176 80.2085 25.352 79.9205 24.44L81.9605 23.6C82.3925 24.752 83.0325 25.64 83.8805 26.264C84.7445 26.872 85.7525 27.176 86.9045 27.176C87.6085 27.176 88.2245 27.064 88.7525 26.84C89.2805 26.616 89.6885 26.304 89.9765 25.904C90.2805 25.488 90.4325 25.008 90.4325 24.464C90.4325 23.712 90.2165 23.12 89.7845 22.688C89.3685 22.24 88.7525 21.904 87.9365 21.68L84.6485 20.672C83.3525 20.272 82.3605 19.64 81.6725 18.776C80.9845 17.912 80.6405 16.92 80.6405 15.8C80.6405 14.824 80.8725 13.968 81.3365 13.232C81.8165 12.48 82.4725 11.896 83.3045 11.48C84.1525 11.048 85.1125 10.832 86.1845 10.832C87.2565 10.832 88.2245 11.024 89.0885 11.408C89.9685 11.792 90.7125 12.312 91.3205 12.968C91.9285 13.608 92.3765 14.344 92.6645 15.176L90.6485 16.016C90.2645 15.008 89.6885 14.248 88.9205 13.736C88.1525 13.208 87.2485 12.944 86.2085 12.944C85.5685 12.944 85.0005 13.056 84.5045 13.28C84.0245 13.488 83.6485 13.8 83.3765 14.216C83.1205 14.616 82.9925 15.096 82.9925 15.656C82.9925 16.312 83.2005 16.896 83.6165 17.408C84.0325 17.92 84.6645 18.312 85.5125 18.584L88.5125 19.472C89.9205 19.904 90.9845 20.52 91.7045 21.32C92.4245 22.12 92.7845 23.112 92.7845 24.296C92.7845 25.272 92.5285 26.136 92.0165 26.888C91.5205 27.64 90.8245 28.232 89.9285 28.664C89.0485 29.08 88.0245 29.288 86.8565 29.288ZM96.0034 29V11.12H107.643V13.28H98.3554V18.944H107.163V21.104H98.3554V26.84H107.643V29H96.0034ZM110.333 29V11.12H116.645C117.829 11.12 118.869 11.344 119.765 11.792C120.661 12.24 121.357 12.88 121.853 13.712C122.365 14.544 122.621 15.52 122.621 16.64C122.621 17.904 122.301 18.976 121.661 19.856C121.021 20.736 120.157 21.368 119.069 21.752L123.221 29H120.485L116.117 21.248L117.677 22.16H112.685V29H110.333ZM112.685 20H116.717C117.421 20 118.037 19.864 118.565 19.592C119.093 19.32 119.501 18.928 119.789 18.416C120.093 17.904 120.245 17.312 120.245 16.64C120.245 15.952 120.093 15.36 119.789 14.864C119.501 14.352 119.093 13.96 118.565 13.688C118.037 13.416 117.421 13.28 116.717 13.28H112.685V20ZM129.595 29V11.12H135.907C137.091 11.12 138.131 11.344 139.027 11.792C139.923 12.24 140.619 12.88 141.115 13.712C141.627 14.544 141.883 15.52 141.883 16.64C141.883 17.76 141.627 18.736 141.115 19.568C140.619 20.384 139.923 21.024 139.027 21.488C138.147 21.936 137.107 22.16 135.907 22.16H131.947V29H129.595ZM131.947 20H135.979C136.699 20 137.323 19.864 137.851 19.592C138.379 19.32 138.787 18.928 139.075 18.416C139.363 17.904 139.507 17.312 139.507 16.64C139.507 15.952 139.363 15.36 139.075 14.864C138.787 14.352 138.379 13.96 137.851 13.688C137.323 13.416 136.699 13.28 135.979 13.28H131.947V20ZM144.839 29V11.12H156.479V13.28H147.191V18.944H155.999V21.104H147.191V26.84H156.479V29H144.839ZM159.168 29V11.12H165.48C166.664 11.12 167.704 11.344 168.6 11.792C169.496 12.24 170.192 12.88 170.688 13.712C171.2 14.544 171.456 15.52 171.456 16.64C171.456 17.904 171.136 18.976 170.496 19.856C169.856 20.736 168.992 21.368 167.904 21.752L172.056 29H169.32L164.952 21.248L166.512 22.16H161.52V29H159.168ZM161.52 20H165.552C166.256 20 166.872 19.864 167.4 19.592C167.928 19.32 168.336 18.928 168.624 18.416C168.928 17.904 169.08 17.312 169.08 16.64C169.08 15.952 168.928 15.36 168.624 14.864C168.336 14.352 167.928 13.96 167.4 13.688C166.872 13.416 166.256 13.28 165.552 13.28H161.52V20ZM180.65 29.288C179.514 29.288 178.474 29.08 177.53 28.664C176.586 28.232 175.786 27.648 175.13 26.912C174.474 26.176 174.002 25.352 173.714 24.44L175.754 23.6C176.186 24.752 176.826 25.64 177.674 26.264C178.538 26.872 179.546 27.176 180.698 27.176C181.402 27.176 182.018 27.064 182.546 26.84C183.074 26.616 183.482 26.304 183.77 25.904C184.074 25.488 184.226 25.008 184.226 24.464C184.226 23.712 184.01 23.12 183.578 22.688C183.162 22.24 182.546 21.904 181.73 21.68L178.442 20.672C177.146 20.272 176.154 19.64 175.466 18.776C174.778 17.912 174.434 16.92 174.434 15.8C174.434 14.824 174.666 13.968 175.13 13.232C175.61 12.48 176.266 11.896 177.098 11.48C177.946 11.048 178.906 10.832 179.978 10.832C181.05 10.832 182.018 11.024 182.882 11.408C183.762 11.792 184.506 12.312 185.114 12.968C185.722 13.608 186.17 14.344 186.458 15.176L184.442 16.016C184.058 15.008 183.482 14.248 182.714 13.736C181.946 13.208 181.042 12.944 180.002 12.944C179.362 12.944 178.794 13.056 178.298 13.28C177.818 13.488 177.442 13.8 177.17 14.216C176.914 14.616 176.786 15.096 176.786 15.656C176.786 16.312 176.994 16.896 177.41 17.408C177.826 17.92 178.458 18.312 179.306 18.584L182.306 19.472C183.714 19.904 184.778 20.52 185.498 21.32C186.218 22.12 186.578 23.112 186.578 24.296C186.578 25.272 186.322 26.136 185.81 26.888C185.314 27.64 184.618 28.232 183.722 28.664C182.842 29.08 181.818 29.288 180.65 29.288ZM198.341 29.288C197.077 29.288 195.893 29.064 194.789 28.616C193.685 28.152 192.717 27.504 191.885 26.672C191.069 25.84 190.429 24.864 189.965 23.744C189.501 22.608 189.269 21.376 189.269 20.048C189.269 18.704 189.501 17.472 189.965 16.352C190.429 15.232 191.069 14.256 191.885 13.424C192.717 12.592 193.677 11.952 194.765 11.504C195.869 11.056 197.061 10.832 198.341 10.832C199.621 10.832 200.805 11.064 201.893 11.528C202.997 11.976 203.957 12.616 204.773 13.448C205.605 14.264 206.253 15.232 206.717 16.352C207.197 17.472 207.437 18.704 207.437 20.048C207.437 21.376 207.197 22.608 206.717 23.744C206.253 24.864 205.605 25.84 204.773 26.672C203.957 27.504 202.997 28.152 201.893 28.616C200.805 29.064 199.621 29.288 198.341 29.288ZM198.341 27.104C199.333 27.104 200.237 26.928 201.053 26.576C201.869 26.208 202.573 25.704 203.165 25.064C203.773 24.408 204.237 23.656 204.557 22.808C204.893 21.944 205.061 21.024 205.061 20.048C205.061 19.072 204.893 18.16 204.557 17.312C204.237 16.464 203.773 15.72 203.165 15.08C202.573 14.424 201.869 13.92 201.053 13.568C200.237 13.2 199.333 13.016 198.341 13.016C197.365 13.016 196.469 13.2 195.653 13.568C194.837 13.92 194.125 14.424 193.517 15.08C192.925 15.72 192.461 16.464 192.125 17.312C191.789 18.16 191.621 19.072 191.621 20.048C191.621 21.024 191.789 21.944 192.125 22.808C192.461 23.656 192.925 24.408 193.517 25.064C194.125 25.704 194.837 26.208 195.653 26.576C196.469 26.928 197.365 27.104 198.341 27.104ZM210.643 29V11.12H212.611L222.883 25.568L221.995 25.664V11.12H224.371V29H222.403L212.179 14.456L212.995 14.36V29H210.643ZM226.409 29L232.817 11.12H235.601L242.009 29H239.489L238.025 24.8H230.393L228.929 29H226.409ZM231.137 22.64H237.281L233.873 12.824H234.545L231.137 22.64ZM249.946 29.288C248.81 29.288 247.77 29.08 246.826 28.664C245.882 28.232 245.082 27.648 244.426 26.912C243.77 26.176 243.298 25.352 243.01 24.44L245.05 23.6C245.482 24.752 246.122 25.64 246.97 26.264C247.834 26.872 248.842 27.176 249.994 27.176C250.698 27.176 251.314 27.064 251.842 26.84C252.37 26.616 252.778 26.304 253.066 25.904C253.37 25.488 253.522 25.008 253.522 24.464C253.522 23.712 253.306 23.12 252.874 22.688C252.458 22.24 251.842 21.904 251.026 21.68L247.738 20.672C246.442 20.272 245.45 19.64 244.762 18.776C244.074 17.912 243.73 16.92 243.73 15.8C243.73 14.824 243.962 13.968 244.426 13.232C244.906 12.48 245.562 11.896 246.394 11.48C247.242 11.048 248.202 10.832 249.274 10.832C250.346 10.832 251.314 11.024 252.178 11.408C253.058 11.792 253.802 12.312 254.41 12.968C255.018 13.608 255.466 14.344 255.754 15.176L253.738 16.016C253.354 15.008 252.778 14.248 252.01 13.736C251.242 13.208 250.338 12.944 249.298 12.944C248.658 12.944 248.09 13.056 247.594 13.28C247.114 13.488 246.738 13.8 246.466 14.216C246.21 14.616 246.082 15.096 246.082 15.656C246.082 16.312 246.29 16.896 246.706 17.408C247.122 17.92 247.754 18.312 248.602 18.584L251.602 19.472C253.01 19.904 254.074 20.52 254.794 21.32C255.514 22.12 255.874 23.112 255.874 24.296C255.874 25.272 255.618 26.136 255.106 26.888C254.61 27.64 253.914 28.232 253.018 28.664C252.138 29.08 251.114 29.288 249.946 29.288Z" fill="#323E48"/>
<defs>
<filter id="filter0_d_316_16717" x="0.666667" y="0.666667" width="47.3333" height="47.3333" filterUnits="userSpaceOnUse" color-interpolation-filters="sRGB">
<feFlood flood-opacity="0" result="BackgroundImageFix"/>
<feColorMatrix in="SourceAlpha" type="matrix" values="0 0 0 0 0 0 0 0 0 0 0 0 0 0 0 0 0 0 127 0" result="hardAlpha"/>
<feOffset dx="3.33333" dy="3.33333"/>
<feGaussianBlur stdDeviation="3.33333"/>
<feComposite in2="hardAlpha" operator="out"/>
<feColorMatrix type="matrix" values="0 0 0 0 0.249688 0 0 0 0 0.278083 0 0 0 0 0.391667 0 0 0 0.16 0"/>
<feBlend mode="normal" in2="BackgroundImageFix" result="effect1_dropShadow_316_16717"/>
<feBlend mode="normal" in="SourceGraphic" in2="effect1_dropShadow_316_16717" result="shape"/>
</filter>
</defs>
</svg>
