<svg width="182" height="49" viewBox="0 0 182 49" fill="none" xmlns="http://www.w3.org/2000/svg">
<path d="M61.6939 41.3185L38.9555 2.05184C38.1612 0.683948 36.7745 0 35.3879 0C34.0012 0 32.6146 0.683948 31.8203 2.05184L27.6873 9.17295L27.0007 7.9928C26.2064 6.62491 24.8197 5.94096 23.4331 5.94096C22.0464 5.94096 20.6598 6.62491 19.8655 7.9928L0.560099 41.3185C-1.02849 44.0543 0.950515 47.474 4.12769 47.474H58.1263C61.29 47.474 63.269 44.0543 61.6939 41.3185ZM41.7153 36.3699C42.0654 37.1343 42.025 37.9926 41.5942 38.7302C41.123 39.5483 40.2748 40.0311 39.3324 40.0311H16.069C15.1267 40.0311 14.2785 39.5483 13.8073 38.7302C13.3361 37.9122 13.3361 36.9466 13.8073 36.1285L27.6873 12.177L41.7019 36.3699H41.7153ZM60.388 44.6712C59.9168 45.4892 59.0686 45.972 58.1263 45.972H4.11423C3.17185 45.972 2.3237 45.4892 1.85251 44.6712C1.38132 43.8531 1.38132 42.8875 1.85251 42.0695L21.1714 8.7438C21.6426 7.92575 22.4907 7.44296 23.4331 7.44296C24.3755 7.44296 25.2236 7.92575 25.6948 8.7438L26.8122 10.6749L12.5014 35.3775C10.9129 38.1133 12.8919 41.5331 16.069 41.5331H39.3324C40.6652 41.5331 41.7826 40.9296 42.5231 40.0311C42.8058 39.6958 43.0212 39.3203 43.1828 38.9046C43.5732 37.9122 43.5732 36.7454 43.0616 35.6726L28.5623 10.6749L33.1262 2.80284C33.5974 1.98479 34.4455 1.502 35.3879 1.502C36.3303 1.502 37.1784 1.98479 37.6496 2.80284L60.388 42.0695C60.8592 42.8875 60.8592 43.8531 60.388 44.6712Z" fill="#323E48"/>
<path d="M73.6772 21L80.3342 6.3H82.4132L89.0912 21H86.8862L80.9432 7.476H81.7832L75.8402 21H73.6772ZM76.5122 17.325L77.0792 15.645H85.3532L85.9622 17.325H76.5122ZM94.0497 21L100.707 6.3H102.786L109.464 21H107.259L101.316 7.476H102.156L96.2127 21H94.0497ZM96.8847 17.325L97.4517 15.645H105.726L106.335 17.325H96.8847ZM122.749 21.168C121.629 21.168 120.593 20.986 119.641 20.622C118.703 20.244 117.884 19.719 117.184 19.047C116.498 18.361 115.959 17.563 115.567 16.653C115.175 15.743 114.979 14.742 114.979 13.65C114.979 12.558 115.175 11.557 115.567 10.647C115.959 9.737 116.505 8.946 117.205 8.274C117.905 7.588 118.724 7.063 119.662 6.699C120.614 6.321 121.65 6.132 122.77 6.132C123.904 6.132 124.947 6.328 125.899 6.72C126.865 7.098 127.684 7.665 128.356 8.421L126.991 9.744C126.431 9.156 125.801 8.722 125.101 8.442C124.401 8.148 123.652 8.001 122.854 8.001C122.028 8.001 121.258 8.141 120.544 8.421C119.844 8.701 119.235 9.093 118.717 9.597C118.199 10.101 117.793 10.703 117.499 11.403C117.219 12.089 117.079 12.838 117.079 13.65C117.079 14.462 117.219 15.218 117.499 15.918C117.793 16.604 118.199 17.199 118.717 17.703C119.235 18.207 119.844 18.599 120.544 18.879C121.258 19.159 122.028 19.299 122.854 19.299C123.652 19.299 124.401 19.159 125.101 18.879C125.801 18.585 126.431 18.137 126.991 17.535L128.356 18.858C127.684 19.614 126.865 20.188 125.899 20.58C124.947 20.972 123.897 21.168 122.749 21.168ZM137.988 12.642H145.548V14.427H137.988V12.642ZM138.177 19.173H146.745V21H136.077V6.3H146.451V8.127H138.177V19.173ZM75.9032 43V28.3H82.0982C83.6662 28.3 85.0452 28.608 86.2352 29.224C87.4392 29.84 88.3702 30.701 89.0282 31.807C89.7002 32.913 90.0362 34.194 90.0362 35.65C90.0362 37.106 89.7002 38.387 89.0282 39.493C88.3702 40.599 87.4392 41.46 86.2352 42.076C85.0452 42.692 83.6662 43 82.0982 43H75.9032ZM78.0032 41.173H81.9722C83.1902 41.173 84.2402 40.942 85.1222 40.48C86.0182 40.018 86.7112 39.374 87.2012 38.548C87.6912 37.708 87.9362 36.742 87.9362 35.65C87.9362 34.544 87.6912 33.578 87.2012 32.752C86.7112 31.926 86.0182 31.282 85.1222 30.82C84.2402 30.358 83.1902 30.127 81.9722 30.127H78.0032V41.173ZM99.8889 34.642H107.449V36.427H99.8889V34.642ZM100.078 41.173H108.646V43H97.9779V28.3H108.352V30.127H100.078V41.173ZM121.055 43.168C119.935 43.168 118.864 43 117.842 42.664C116.82 42.314 116.015 41.866 115.427 41.32L116.204 39.682C116.764 40.172 117.478 40.578 118.346 40.9C119.214 41.222 120.117 41.383 121.055 41.383C121.909 41.383 122.602 41.285 123.134 41.089C123.666 40.893 124.058 40.627 124.31 40.291C124.562 39.941 124.688 39.549 124.688 39.115C124.688 38.611 124.52 38.205 124.184 37.897C123.862 37.589 123.435 37.344 122.903 37.162C122.385 36.966 121.811 36.798 121.181 36.658C120.551 36.518 119.914 36.357 119.27 36.175C118.64 35.979 118.059 35.734 117.527 35.44C117.009 35.146 116.589 34.754 116.267 34.264C115.945 33.76 115.784 33.116 115.784 32.332C115.784 31.576 115.98 30.883 116.372 30.253C116.778 29.609 117.394 29.098 118.22 28.72C119.06 28.328 120.124 28.132 121.412 28.132C122.266 28.132 123.113 28.244 123.953 28.468C124.793 28.692 125.521 29.014 126.137 29.434L125.444 31.114C124.814 30.694 124.149 30.393 123.449 30.211C122.749 30.015 122.07 29.917 121.412 29.917C120.586 29.917 119.907 30.022 119.375 30.232C118.843 30.442 118.451 30.722 118.199 31.072C117.961 31.422 117.842 31.814 117.842 32.248C117.842 32.766 118.003 33.179 118.325 33.487C118.661 33.795 119.088 34.04 119.606 34.222C120.138 34.404 120.719 34.572 121.349 34.726C121.979 34.866 122.609 35.027 123.239 35.209C123.883 35.391 124.464 35.629 124.982 35.923C125.514 36.217 125.941 36.609 126.263 37.099C126.585 37.589 126.746 38.219 126.746 38.989C126.746 39.731 126.543 40.424 126.137 41.068C125.731 41.698 125.101 42.209 124.247 42.601C123.407 42.979 122.343 43.168 121.055 43.168ZM134.539 43V28.3H136.639V43H134.539ZM152.401 43.168C151.267 43.168 150.224 42.986 149.272 42.622C148.32 42.244 147.494 41.719 146.794 41.047C146.094 40.361 145.548 39.563 145.156 38.653C144.764 37.743 144.568 36.742 144.568 35.65C144.568 34.558 144.764 33.557 145.156 32.647C145.548 31.737 146.094 30.946 146.794 30.274C147.508 29.588 148.341 29.063 149.293 28.699C150.245 28.321 151.295 28.132 152.443 28.132C153.605 28.132 154.669 28.321 155.635 28.699C156.601 29.077 157.42 29.644 158.092 30.4L156.79 31.702C156.188 31.114 155.53 30.687 154.816 30.421C154.116 30.141 153.353 30.001 152.527 30.001C151.687 30.001 150.903 30.141 150.175 30.421C149.461 30.701 148.838 31.093 148.306 31.597C147.788 32.101 147.382 32.703 147.088 33.403C146.808 34.089 146.668 34.838 146.668 35.65C146.668 36.448 146.808 37.197 147.088 37.897C147.382 38.583 147.788 39.185 148.306 39.703C148.838 40.207 149.461 40.599 150.175 40.879C150.889 41.159 151.666 41.299 152.506 41.299C153.29 41.299 154.039 41.18 154.753 40.942C155.481 40.69 156.153 40.277 156.769 39.703L157.966 41.299C157.238 41.915 156.384 42.384 155.404 42.706C154.438 43.014 153.437 43.168 152.401 43.168ZM155.95 41.026V35.566H157.966V41.299L155.95 41.026ZM166.712 43V28.3H168.434L178.157 40.375H177.254V28.3H179.354V43H177.632L167.909 30.925H168.812V43H166.712Z" fill="#323E48"/>
</svg>
