<svg width="263" height="217" viewBox="0 0 263 217" fill="none" xmlns="http://www.w3.org/2000/svg">
<path d="M28.4307 210.026V191.253H34.7302C35.9229 191.253 36.9728 191.488 37.8799 191.959C38.787 192.429 39.4926 193.093 39.9965 193.949C40.5173 194.806 40.7777 195.797 40.7777 196.923C40.7777 198.048 40.5173 199.039 39.9965 199.896C39.4926 200.736 38.787 201.4 37.8799 201.887C36.9896 202.357 35.9397 202.592 34.7302 202.592H30.0686V210.026H28.4307ZM30.0686 201.08H34.7806C35.6373 201.08 36.3932 200.912 37.0484 200.576C37.7035 200.224 38.2159 199.736 38.5854 199.115C38.955 198.477 39.1398 197.737 39.1398 196.898C39.1398 196.058 38.955 195.335 38.5854 194.731C38.2159 194.109 37.7035 193.63 37.0484 193.294C36.3932 192.941 35.6373 192.765 34.7806 192.765H30.0686V201.08ZM44.3697 210.026V196.646H45.8816V199.14L45.6044 198.913C45.89 198.157 46.3772 197.561 47.0659 197.124C47.7715 196.688 48.603 196.469 49.5605 196.469H50.4172V197.981H49.3841C48.2922 197.981 47.4355 198.334 46.8139 199.039C46.1924 199.728 45.8816 200.66 45.8816 201.836V210.026H44.3697ZM59.1324 210.328C57.8557 210.328 56.705 210.026 55.6802 209.421C54.6555 208.816 53.8408 207.985 53.236 206.926C52.6481 205.851 52.3541 204.65 52.3541 203.323C52.3541 201.996 52.6481 200.803 53.236 199.745C53.8408 198.687 54.6471 197.855 55.655 197.25C56.6798 196.646 57.8389 196.343 59.1324 196.343C60.4091 196.343 61.5598 196.646 62.5845 197.25C63.6092 197.855 64.4155 198.687 65.0035 199.745C65.5914 200.786 65.8854 201.979 65.8854 203.323C65.8854 204.667 65.583 205.868 64.9783 206.926C64.3735 207.985 63.5588 208.816 62.5341 209.421C61.5262 210.026 60.3923 210.328 59.1324 210.328ZM59.1324 208.841C60.0899 208.841 60.955 208.606 61.7277 208.136C62.5173 207.649 63.1388 206.985 63.5924 206.145C64.0459 205.305 64.2727 204.365 64.2727 203.323C64.2727 202.281 64.0459 201.349 63.5924 200.526C63.1388 199.703 62.5257 199.048 61.7529 198.561C60.9802 198.073 60.1067 197.83 59.1324 197.83C58.158 197.83 57.2761 198.073 56.4866 198.561C55.7138 199.031 55.1007 199.686 54.6471 200.526C54.1936 201.349 53.9668 202.281 53.9668 203.323C53.9668 204.365 54.1936 205.305 54.6471 206.145C55.1175 206.985 55.739 207.649 56.5118 208.136C57.2845 208.606 58.158 208.841 59.1324 208.841ZM75.5407 210.328C74.2976 210.328 73.1721 210.026 72.1642 209.421C71.1731 208.799 70.3919 207.959 69.8208 206.901C69.2496 205.843 68.9641 204.65 68.9641 203.323C68.9641 201.996 69.2496 200.803 69.8208 199.745C70.3919 198.687 71.1731 197.855 72.1642 197.25C73.1721 196.646 74.2976 196.343 75.5407 196.343C76.767 196.343 77.8589 196.637 78.8164 197.225C79.774 197.796 80.4963 198.569 80.9835 199.543L80.7315 200.022V190.951H82.2434V210.026H80.7315V206.624L80.9835 206.977C80.5131 208.018 79.7908 208.841 78.8164 209.446C77.8589 210.034 76.767 210.328 75.5407 210.328ZM75.5911 208.816C76.5654 208.816 77.4306 208.581 78.1865 208.111C78.9592 207.623 79.5724 206.968 80.0259 206.145C80.4795 205.305 80.7063 204.365 80.7063 203.323C80.7063 202.281 80.4795 201.349 80.0259 200.526C79.5724 199.703 78.9592 199.056 78.1865 198.586C77.4306 198.099 76.5654 197.855 75.5911 197.855C74.6336 197.855 73.7769 198.099 73.0209 198.586C72.265 199.056 71.6686 199.703 71.2319 200.526C70.7951 201.349 70.5767 202.281 70.5767 203.323C70.5767 204.365 70.7951 205.305 71.2319 206.145C71.6686 206.968 72.265 207.623 73.0209 208.111C73.7769 208.581 74.6336 208.816 75.5911 208.816ZM91.1609 210.328C90.2537 210.328 89.4138 210.118 88.6411 209.698C87.8851 209.278 87.2804 208.69 86.8268 207.934C86.3733 207.161 86.1465 206.246 86.1465 205.188V196.646H87.6583V205.062C87.6583 205.851 87.8179 206.532 88.1371 207.103C88.4731 207.657 88.9182 208.085 89.4726 208.388C90.0437 208.69 90.6821 208.841 91.3876 208.841C92.1604 208.841 92.8239 208.665 93.3783 208.312C93.9494 207.959 94.3862 207.472 94.6886 206.851C94.9909 206.212 95.1421 205.49 95.1421 204.684V196.646H96.654V210.026H95.1421V207.304L95.5201 207.43C95.2177 208.304 94.6802 209.009 93.9074 209.547C93.1347 210.068 92.2192 210.328 91.1609 210.328ZM106.941 210.328C105.665 210.328 104.522 210.026 103.515 209.421C102.523 208.799 101.734 207.959 101.146 206.901C100.575 205.843 100.289 204.65 100.289 203.323C100.289 201.979 100.575 200.786 101.146 199.745C101.734 198.687 102.523 197.855 103.515 197.25C104.522 196.646 105.665 196.343 106.941 196.343C107.781 196.343 108.554 196.486 109.26 196.772C109.982 197.057 110.62 197.443 111.175 197.931C111.729 198.418 112.149 198.981 112.435 199.619L111.099 200.324C110.696 199.552 110.133 198.939 109.411 198.485C108.688 198.031 107.865 197.805 106.941 197.805C105.984 197.805 105.119 198.04 104.346 198.51C103.59 198.981 102.985 199.636 102.532 200.476C102.078 201.299 101.851 202.248 101.851 203.323C101.851 204.398 102.078 205.356 102.532 206.196C102.985 207.019 103.59 207.665 104.346 208.136C105.119 208.606 105.984 208.841 106.941 208.841C107.865 208.841 108.688 208.615 109.411 208.161C110.133 207.707 110.696 207.086 111.099 206.296L112.435 207.027C112.149 207.649 111.729 208.211 111.175 208.715C110.62 209.203 109.982 209.597 109.26 209.9C108.554 210.185 107.781 210.328 106.941 210.328ZM120.914 210.177C119.805 210.177 118.949 209.866 118.344 209.244C117.739 208.606 117.437 207.682 117.437 206.473V198.082H114.917V196.646H115.874C116.378 196.646 116.765 196.494 117.034 196.192C117.302 195.89 117.437 195.478 117.437 194.957V193.521H118.949V196.646H121.872V198.082H118.949V206.473C118.949 206.842 118.999 207.203 119.1 207.556C119.217 207.909 119.436 208.195 119.755 208.413C120.074 208.631 120.536 208.741 121.141 208.741C121.275 208.741 121.435 208.732 121.62 208.715C121.821 208.699 121.981 208.682 122.098 208.665V210.026C121.914 210.076 121.704 210.11 121.468 210.126C121.233 210.16 121.048 210.177 120.914 210.177ZM130.157 210.026V191.253H136.23C138.078 191.253 139.674 191.64 141.018 192.412C142.378 193.168 143.428 194.252 144.167 195.663C144.907 197.057 145.276 198.712 145.276 200.627C145.276 202.525 144.907 204.18 144.167 205.591C143.428 207.002 142.378 208.094 141.018 208.867C139.674 209.639 138.078 210.026 136.23 210.026H130.157ZM131.795 208.514H136.205C137.7 208.514 138.993 208.186 140.085 207.531C141.194 206.876 142.051 205.96 142.656 204.784C143.277 203.592 143.588 202.206 143.588 200.627C143.588 199.031 143.277 197.645 142.656 196.469C142.051 195.293 141.194 194.386 140.085 193.748C138.977 193.093 137.683 192.765 136.205 192.765H131.795V208.514ZM154.729 210.328C153.47 210.328 152.336 210.026 151.328 209.421C150.32 208.799 149.522 207.959 148.934 206.901C148.346 205.826 148.052 204.625 148.052 203.298C148.052 201.971 148.338 200.786 148.909 199.745C149.48 198.687 150.253 197.855 151.227 197.25C152.201 196.646 153.293 196.343 154.503 196.343C155.427 196.343 156.258 196.511 156.997 196.847C157.753 197.183 158.4 197.653 158.937 198.258C159.492 198.846 159.912 199.527 160.197 200.299C160.5 201.055 160.651 201.853 160.651 202.693C160.651 202.861 160.643 203.037 160.626 203.222C160.609 203.407 160.584 203.6 160.55 203.802H148.934V202.416H159.693L159.013 202.945C159.114 201.971 158.971 201.097 158.585 200.324C158.198 199.535 157.644 198.913 156.922 198.46C156.216 197.989 155.41 197.754 154.503 197.754C153.596 197.754 152.764 197.998 152.008 198.485C151.252 198.955 150.656 199.611 150.219 200.45C149.782 201.274 149.581 202.231 149.614 203.323C149.581 204.415 149.791 205.381 150.244 206.221C150.698 207.061 151.319 207.724 152.109 208.211C152.898 208.682 153.772 208.917 154.729 208.917C155.704 208.917 156.552 208.69 157.274 208.237C157.997 207.766 158.585 207.145 159.038 206.372L160.323 207.052C160.021 207.674 159.593 208.237 159.038 208.741C158.484 209.228 157.837 209.614 157.098 209.9C156.376 210.185 155.586 210.328 154.729 210.328ZM168.767 210.328C167.524 210.328 166.432 210.017 165.491 209.396C164.551 208.774 163.862 207.926 163.425 206.851L164.735 206.246C165.155 207.069 165.718 207.724 166.424 208.211C167.129 208.682 167.91 208.917 168.767 208.917C169.641 208.917 170.371 208.707 170.959 208.287C171.564 207.85 171.866 207.279 171.866 206.574C171.866 206.137 171.749 205.767 171.514 205.465C171.295 205.162 171.01 204.919 170.657 204.734C170.304 204.532 169.926 204.381 169.523 204.281L167.457 203.701C166.298 203.382 165.441 202.911 164.887 202.29C164.349 201.668 164.08 200.938 164.08 200.098C164.08 199.342 164.273 198.687 164.66 198.132C165.046 197.561 165.567 197.124 166.222 196.822C166.877 196.503 167.6 196.343 168.389 196.343C169.498 196.343 170.506 196.629 171.413 197.2C172.32 197.771 172.958 198.544 173.328 199.518L171.967 200.148C171.614 199.392 171.119 198.804 170.48 198.384C169.842 197.947 169.137 197.729 168.364 197.729C167.558 197.729 166.902 197.947 166.398 198.384C165.894 198.804 165.642 199.342 165.642 199.997C165.642 200.417 165.743 200.77 165.945 201.055C166.146 201.324 166.407 201.551 166.726 201.736C167.062 201.904 167.406 202.038 167.759 202.139L170.002 202.794C171.094 203.096 171.934 203.575 172.522 204.23C173.126 204.885 173.429 205.658 173.429 206.548C173.429 207.271 173.227 207.917 172.824 208.489C172.421 209.06 171.866 209.513 171.161 209.849C170.455 210.168 169.657 210.328 168.767 210.328ZM177.052 210.026V196.646H178.564V210.026H177.052ZM177.052 194.025V191.253H178.564V194.025H177.052ZM188.961 215.569C188.071 215.569 187.248 215.426 186.492 215.141C185.736 214.855 185.081 214.469 184.526 213.982C183.972 213.495 183.535 212.94 183.216 212.319L184.577 211.588C184.946 212.31 185.501 212.907 186.24 213.377C186.996 213.847 187.894 214.082 188.936 214.082C189.776 214.082 190.557 213.915 191.279 213.579C192.002 213.259 192.59 212.755 193.043 212.067C193.514 211.395 193.749 210.546 193.749 209.522V206.12L194.026 206.473C193.556 207.514 192.842 208.337 191.884 208.942C190.927 209.53 189.86 209.824 188.684 209.824C187.441 209.824 186.324 209.522 185.333 208.917C184.342 208.312 183.56 207.497 182.989 206.473C182.435 205.448 182.158 204.314 182.158 203.071C182.158 201.828 182.435 200.702 182.989 199.694C183.56 198.67 184.333 197.855 185.307 197.25C186.299 196.646 187.424 196.343 188.684 196.343C189.86 196.343 190.918 196.637 191.859 197.225C192.8 197.796 193.522 198.569 194.026 199.543L193.749 200.022V196.646H195.261V209.522C195.261 210.681 194.992 211.714 194.454 212.621C193.917 213.545 193.169 214.267 192.212 214.788C191.271 215.309 190.187 215.569 188.961 215.569ZM188.734 208.312C189.675 208.312 190.515 208.077 191.254 207.607C192.01 207.136 192.606 206.506 193.043 205.717C193.48 204.91 193.698 204.029 193.698 203.071C193.698 202.113 193.48 201.24 193.043 200.45C192.606 199.661 192.01 199.031 191.254 198.561C190.515 198.09 189.675 197.855 188.734 197.855C187.777 197.855 186.92 198.09 186.164 198.561C185.408 199.031 184.82 199.661 184.4 200.45C183.98 201.24 183.77 202.113 183.77 203.071C183.77 204.029 183.98 204.91 184.4 205.717C184.82 206.506 185.4 207.136 186.139 207.607C186.895 208.077 187.76 208.312 188.734 208.312ZM199.42 210.026V196.646H200.932V199.342L200.554 199.241C200.857 198.351 201.394 197.645 202.167 197.124C202.957 196.604 203.872 196.343 204.914 196.343C205.838 196.343 206.677 196.553 207.433 196.973C208.189 197.393 208.794 197.981 209.248 198.737C209.701 199.476 209.928 200.324 209.928 201.282V210.026H208.416V201.71C208.416 200.904 208.257 200.215 207.937 199.644C207.618 199.056 207.173 198.611 206.602 198.309C206.047 197.989 205.409 197.83 204.687 197.83C203.931 197.83 203.267 198.006 202.696 198.359C202.125 198.712 201.688 199.199 201.386 199.82C201.084 200.442 200.932 201.156 200.932 201.962V210.026H199.42ZM219.963 210.328C218.704 210.328 217.57 210.026 216.562 209.421C215.554 208.799 214.756 207.959 214.168 206.901C213.58 205.826 213.286 204.625 213.286 203.298C213.286 201.971 213.572 200.786 214.143 199.745C214.714 198.687 215.487 197.855 216.461 197.25C217.435 196.646 218.527 196.343 219.737 196.343C220.661 196.343 221.492 196.511 222.231 196.847C222.987 197.183 223.634 197.653 224.171 198.258C224.726 198.846 225.146 199.527 225.431 200.299C225.734 201.055 225.885 201.853 225.885 202.693C225.885 202.861 225.877 203.037 225.86 203.222C225.843 203.407 225.818 203.6 225.784 203.802H214.168V202.416H224.927L224.247 202.945C224.348 201.971 224.205 201.097 223.819 200.324C223.432 199.535 222.878 198.913 222.156 198.46C221.45 197.989 220.644 197.754 219.737 197.754C218.83 197.754 217.998 197.998 217.242 198.485C216.486 198.955 215.89 199.611 215.453 200.45C215.016 201.274 214.815 202.231 214.848 203.323C214.815 204.415 215.025 205.381 215.478 206.221C215.932 207.061 216.553 207.724 217.343 208.211C218.132 208.682 219.006 208.917 219.963 208.917C220.938 208.917 221.786 208.69 222.508 208.237C223.231 207.766 223.819 207.145 224.272 206.372L225.557 207.052C225.255 207.674 224.827 208.237 224.272 208.741C223.718 209.228 223.071 209.614 222.332 209.9C221.61 210.185 220.82 210.328 219.963 210.328ZM229.491 210.026V196.646H231.002V199.14L230.725 198.913C231.011 198.157 231.498 197.561 232.187 197.124C232.892 196.688 233.724 196.469 234.681 196.469H235.538V197.981H234.505C233.413 197.981 232.556 198.334 231.935 199.039C231.313 199.728 231.002 200.66 231.002 201.836V210.026H229.491Z" fill="#323E48"/>
<path d="M0.0169219 168.333L8.89292 148.733H11.6649L20.5689 168.333H17.6289L9.70492 150.301H10.8249L2.90092 168.333H0.0169219ZM3.79692 163.433L4.55292 161.193H15.5849L16.3969 163.433H3.79692ZM27.1802 168.333L36.0562 148.733H38.8282L47.7322 168.333H44.7922L36.8682 150.301H37.9882L30.0642 168.333H27.1802ZM30.9602 163.433L31.7162 161.193H42.7482L43.5602 163.433H30.9602ZM65.4466 168.557C63.9532 168.557 62.5719 168.314 61.3026 167.829C60.0519 167.325 58.9599 166.625 58.0266 165.729C57.1119 164.814 56.3932 163.75 55.8706 162.537C55.3479 161.324 55.0866 159.989 55.0866 158.533C55.0866 157.077 55.3479 155.742 55.8706 154.529C56.3932 153.316 57.1212 152.261 58.0546 151.365C58.9879 150.45 60.0799 149.75 61.3306 149.265C62.5999 148.761 63.9812 148.509 65.4746 148.509C66.9866 148.509 68.3772 148.77 69.6466 149.293C70.9346 149.797 72.0266 150.553 72.9226 151.561L71.1026 153.325C70.3559 152.541 69.5159 151.962 68.5826 151.589C67.6492 151.197 66.6506 151.001 65.5866 151.001C64.4852 151.001 63.4586 151.188 62.5066 151.561C61.5732 151.934 60.7612 152.457 60.0706 153.129C59.3799 153.801 58.8386 154.604 58.4466 155.537C58.0732 156.452 57.8866 157.45 57.8866 158.533C57.8866 159.616 58.0732 160.624 58.4466 161.557C58.8386 162.472 59.3799 163.265 60.0706 163.937C60.7612 164.609 61.5732 165.132 62.5066 165.505C63.4586 165.878 64.4852 166.065 65.5866 166.065C66.6506 166.065 67.6492 165.878 68.5826 165.505C69.5159 165.113 70.3559 164.516 71.1026 163.713L72.9226 165.477C72.0266 166.485 70.9346 167.25 69.6466 167.773C68.3772 168.296 66.9772 168.557 65.4466 168.557ZM85.765 157.189H95.845V159.569H85.765V157.189ZM86.017 165.897H97.441V168.333H83.217V148.733H97.049V151.169H86.017V165.897ZM122.094 168.333V148.733H130.354C132.445 148.733 134.284 149.144 135.87 149.965C137.476 150.786 138.717 151.934 139.594 153.409C140.49 154.884 140.938 156.592 140.938 158.533C140.938 160.474 140.49 162.182 139.594 163.657C138.717 165.132 137.476 166.28 135.87 167.101C134.284 167.922 132.445 168.333 130.354 168.333H122.094ZM124.894 165.897H130.186C131.81 165.897 133.21 165.589 134.386 164.973C135.581 164.357 136.505 163.498 137.158 162.397C137.812 161.277 138.138 159.989 138.138 158.533C138.138 157.058 137.812 155.77 137.158 154.669C136.505 153.568 135.581 152.709 134.386 152.093C133.21 151.477 131.81 151.169 130.186 151.169H124.894V165.897ZM154.075 157.189H164.155V159.569H154.075V157.189ZM154.327 165.897H165.751V168.333H151.527V148.733H165.359V151.169H154.327V165.897ZM182.297 168.557C180.804 168.557 179.376 168.333 178.013 167.885C176.65 167.418 175.577 166.821 174.793 166.093L175.829 163.909C176.576 164.562 177.528 165.104 178.685 165.533C179.842 165.962 181.046 166.177 182.297 166.177C183.436 166.177 184.36 166.046 185.069 165.785C185.778 165.524 186.301 165.169 186.637 164.721C186.973 164.254 187.141 163.732 187.141 163.153C187.141 162.481 186.917 161.94 186.469 161.529C186.04 161.118 185.47 160.792 184.761 160.549C184.07 160.288 183.305 160.064 182.465 159.877C181.625 159.69 180.776 159.476 179.917 159.233C179.077 158.972 178.302 158.645 177.593 158.253C176.902 157.861 176.342 157.338 175.913 156.685C175.484 156.013 175.269 155.154 175.269 154.109C175.269 153.101 175.53 152.177 176.053 151.337C176.594 150.478 177.416 149.797 178.517 149.293C179.637 148.77 181.056 148.509 182.773 148.509C183.912 148.509 185.041 148.658 186.161 148.957C187.281 149.256 188.252 149.685 189.073 150.245L188.149 152.485C187.309 151.925 186.422 151.524 185.489 151.281C184.556 151.02 183.65 150.889 182.773 150.889C181.672 150.889 180.766 151.029 180.057 151.309C179.348 151.589 178.825 151.962 178.489 152.429C178.172 152.896 178.013 153.418 178.013 153.997C178.013 154.688 178.228 155.238 178.657 155.649C179.105 156.06 179.674 156.386 180.365 156.629C181.074 156.872 181.849 157.096 182.689 157.301C183.529 157.488 184.369 157.702 185.209 157.945C186.068 158.188 186.842 158.505 187.533 158.897C188.242 159.289 188.812 159.812 189.241 160.465C189.67 161.118 189.885 161.958 189.885 162.985C189.885 163.974 189.614 164.898 189.073 165.757C188.532 166.597 187.692 167.278 186.553 167.801C185.433 168.305 184.014 168.557 182.297 168.557ZM200.276 168.333V148.733H203.076V168.333H200.276ZM224.092 168.557C222.58 168.557 221.189 168.314 219.92 167.829C218.65 167.325 217.549 166.625 216.616 165.729C215.682 164.814 214.954 163.75 214.432 162.537C213.909 161.324 213.648 159.989 213.648 158.533C213.648 157.077 213.909 155.742 214.432 154.529C214.954 153.316 215.682 152.261 216.616 151.365C217.568 150.45 218.678 149.75 219.948 149.265C221.217 148.761 222.617 148.509 224.148 148.509C225.697 148.509 227.116 148.761 228.404 149.265C229.692 149.769 230.784 150.525 231.68 151.533L229.944 153.269C229.141 152.485 228.264 151.916 227.312 151.561C226.378 151.188 225.361 151.001 224.26 151.001C223.14 151.001 222.094 151.188 221.124 151.561C220.172 151.934 219.341 152.457 218.632 153.129C217.941 153.801 217.4 154.604 217.008 155.537C216.634 156.452 216.448 157.45 216.448 158.533C216.448 159.597 216.634 160.596 217.008 161.529C217.4 162.444 217.941 163.246 218.632 163.937C219.341 164.609 220.172 165.132 221.124 165.505C222.076 165.878 223.112 166.065 224.232 166.065C225.277 166.065 226.276 165.906 227.228 165.589C228.198 165.253 229.094 164.702 229.916 163.937L231.512 166.065C230.541 166.886 229.402 167.512 228.096 167.941C226.808 168.352 225.473 168.557 224.092 168.557ZM228.824 165.701V158.421H231.512V166.065L228.824 165.701ZM243.172 168.333V148.733H245.468L258.432 164.833H257.228V148.733H260.028V168.333H257.732L244.768 152.233H245.972V168.333H243.172Z" fill="#323E48"/>
<g clip-path="url(#clip0_167_910)">
<path d="M208.968 108.585L149.211 5.39225C147.124 1.79742 143.48 0 139.835 0C136.191 0 132.547 1.79742 130.46 5.39225L119.598 24.1065L117.794 21.0051C115.706 17.4103 112.062 15.6129 108.418 15.6129C104.774 15.6129 101.13 17.4103 99.0425 21.0051L48.3079 108.585C44.1331 115.775 49.3339 124.762 57.6835 124.762H199.592C207.906 124.762 213.107 115.775 208.968 108.585ZM156.464 95.5803C157.384 97.5892 157.278 99.8448 156.146 101.783C154.907 103.933 152.678 105.202 150.202 105.202H89.0654C86.5888 105.202 84.3599 103.933 83.1216 101.783C81.8833 99.6333 81.8833 97.0958 83.1216 94.9459L119.598 32.0011L156.429 95.5803H156.464ZM205.536 117.396C204.297 119.546 202.069 120.815 199.592 120.815H57.6481C55.1716 120.815 52.9426 119.546 51.7043 117.396C50.466 115.246 50.466 112.709 51.7043 110.559L102.474 22.9787C103.713 20.8289 105.942 19.5601 108.418 19.5601C110.895 19.5601 113.124 20.8289 114.362 22.9787L117.299 28.0538L79.6898 92.9723C75.515 100.162 80.7158 109.149 89.0654 109.149H150.202C153.704 109.149 156.641 107.563 158.587 105.202C159.33 104.321 159.896 103.334 160.32 102.241C161.346 99.6333 161.346 96.5671 160.002 93.7476L121.898 28.0538L133.892 7.36589C135.13 5.21603 137.359 3.94727 139.835 3.94727C142.312 3.94727 144.541 5.21603 145.779 7.36589L205.536 110.559C206.774 112.709 206.774 115.246 205.536 117.396Z" fill="#323E48"/>
</g>
<defs>
<clipPath id="clip0_167_910">
<rect width="166.285" height="126.877" fill="white" transform="translate(46.8359)"/>
</clipPath>
</defs>
</svg>
