<svg width="212" height="61" viewBox="0 0 212 61" fill="none" xmlns="http://www.w3.org/2000/svg">
<path d="M77.8518 52.14L49.1581 2.58923C48.1558 0.863077 46.406 0 44.6562 0C42.9063 0 41.1565 0.863077 40.1542 2.58923L34.9387 11.5754L34.0723 10.0862C33.07 8.36 31.3201 7.49692 29.5703 7.49692C27.8205 7.49692 26.0707 8.36 25.0684 10.0862L0.706791 52.14C-1.29786 55.5923 1.19946 59.9077 5.20875 59.9077H73.3498C77.3421 59.9077 79.8394 55.5923 77.8518 52.14ZM52.6408 45.8954C53.0825 46.86 53.0315 47.9431 52.4879 48.8738C51.8933 49.9062 50.823 50.5154 49.6338 50.5154H20.2776C19.0884 50.5154 18.0181 49.9062 17.4235 48.8738C16.8289 47.8415 16.8289 46.6231 17.4235 45.5908L34.9387 15.3662L52.6238 45.8954H52.6408ZM76.2039 56.3708C75.6093 57.4031 74.539 58.0123 73.3498 58.0123H5.19177C4.00257 58.0123 2.93229 57.4031 2.33769 56.3708C1.74309 55.3385 1.74309 54.12 2.33769 53.0877L26.7162 11.0338C27.3108 10.0015 28.3811 9.39231 29.5703 9.39231C30.7595 9.39231 31.8298 10.0015 32.4244 11.0338L33.8344 13.4708L15.7756 44.6431C13.771 48.0954 16.2683 52.4108 20.2776 52.4108H49.6338C51.3157 52.4108 52.7257 51.6492 53.6601 50.5154C54.0168 50.0923 54.2887 49.6185 54.4925 49.0938C54.9852 47.8415 54.9852 46.3692 54.3396 45.0154L36.043 13.4708L41.8021 3.53692C42.3967 2.50462 43.467 1.89538 44.6562 1.89538C45.8453 1.89538 46.9156 2.50462 47.5102 3.53692L76.2039 53.0877C76.7985 54.12 76.7985 55.3385 76.2039 56.3708Z" fill="#323E48"/>
<path d="M93.264 28L99.552 10.12H103.056L109.344 28H106.32L104.952 23.992H97.68L96.288 28H93.264ZM98.496 21.472H104.088L100.92 12.112H101.712L98.496 21.472ZM124.467 28.288C123.203 28.288 122.027 28.056 120.939 27.592C119.867 27.128 118.931 26.488 118.131 25.672C117.347 24.84 116.731 23.864 116.283 22.744C115.835 21.624 115.611 20.392 115.611 19.048C115.611 17.72 115.827 16.496 116.259 15.376C116.707 14.24 117.331 13.264 118.131 12.448C118.931 11.616 119.867 10.976 120.939 10.528C122.011 10.064 123.187 9.832 124.467 9.832C125.731 9.832 126.859 10.048 127.851 10.48C128.859 10.912 129.707 11.48 130.395 12.184C131.083 12.872 131.579 13.624 131.883 14.44L129.339 15.64C128.955 14.68 128.339 13.904 127.491 13.312C126.659 12.704 125.651 12.4 124.467 12.4C123.283 12.4 122.235 12.68 121.323 13.24C120.411 13.8 119.699 14.576 119.187 15.568C118.691 16.56 118.443 17.72 118.443 19.048C118.443 20.376 118.691 21.544 119.187 22.552C119.699 23.544 120.411 24.32 121.323 24.88C122.235 25.424 123.283 25.696 124.467 25.696C125.651 25.696 126.659 25.4 127.491 24.808C128.339 24.216 128.955 23.44 129.339 22.48L131.883 23.68C131.579 24.48 131.083 25.232 130.395 25.936C129.707 26.64 128.859 27.208 127.851 27.64C126.859 28.072 125.731 28.288 124.467 28.288ZM148.523 28.288C147.259 28.288 146.083 28.056 144.995 27.592C143.923 27.128 142.987 26.488 142.187 25.672C141.403 24.84 140.787 23.864 140.339 22.744C139.891 21.624 139.667 20.392 139.667 19.048C139.667 17.72 139.883 16.496 140.315 15.376C140.763 14.24 141.387 13.264 142.187 12.448C142.987 11.616 143.923 10.976 144.995 10.528C146.067 10.064 147.243 9.832 148.523 9.832C149.787 9.832 150.915 10.048 151.907 10.48C152.915 10.912 153.763 11.48 154.451 12.184C155.139 12.872 155.635 13.624 155.939 14.44L153.395 15.64C153.011 14.68 152.395 13.904 151.547 13.312C150.715 12.704 149.707 12.4 148.523 12.4C147.339 12.4 146.291 12.68 145.379 13.24C144.467 13.8 143.755 14.576 143.243 15.568C142.747 16.56 142.499 17.72 142.499 19.048C142.499 20.376 142.747 21.544 143.243 22.552C143.755 23.544 144.467 24.32 145.379 24.88C146.291 25.424 147.339 25.696 148.523 25.696C149.707 25.696 150.715 25.4 151.547 24.808C152.395 24.216 153.011 23.44 153.395 22.48L155.939 23.68C155.635 24.48 155.139 25.232 154.451 25.936C153.763 26.64 152.915 27.208 151.907 27.64C150.915 28.072 149.787 28.288 148.523 28.288ZM164.251 28V10.12H176.035V12.64H167.083V17.776H175.555V20.296H167.083V25.48H176.035V28H164.251ZM94.848 52V34.12H100.704C102.56 34.12 104.168 34.496 105.528 35.248C106.904 35.984 107.968 37.024 108.72 38.368C109.472 39.712 109.848 41.272 109.848 43.048C109.848 44.808 109.472 46.368 108.72 47.728C107.968 49.072 106.904 50.12 105.528 50.872C104.168 51.624 102.56 52 100.704 52H94.848ZM97.68 49.48H100.752C102.016 49.48 103.112 49.216 104.04 48.688C104.984 48.16 105.712 47.416 106.224 46.456C106.736 45.496 106.992 44.36 106.992 43.048C106.992 41.736 106.728 40.608 106.2 39.664C105.688 38.704 104.968 37.96 104.04 37.432C103.112 36.904 102.016 36.64 100.752 36.64H97.68V49.48ZM118.037 52V34.12H129.821V36.64H120.869V41.776H129.341V44.296H120.869V49.48H129.821V52H118.037ZM144.115 52.288C142.995 52.288 141.955 52.08 140.995 51.664C140.035 51.232 139.219 50.648 138.547 49.912C137.875 49.176 137.379 48.328 137.059 47.368L139.459 46.36C139.891 47.464 140.523 48.312 141.355 48.904C142.187 49.496 143.147 49.792 144.235 49.792C144.875 49.792 145.435 49.696 145.915 49.504C146.395 49.296 146.763 49.008 147.019 48.64C147.291 48.272 147.427 47.848 147.427 47.368C147.427 46.712 147.243 46.192 146.875 45.808C146.507 45.424 145.963 45.12 145.243 44.896L141.883 43.84C140.539 43.424 139.515 42.792 138.811 41.944C138.107 41.08 137.755 40.072 137.755 38.92C137.755 37.912 138.003 37.032 138.499 36.28C138.995 35.512 139.675 34.912 140.539 34.48C141.419 34.048 142.419 33.832 143.539 33.832C144.611 33.832 145.587 34.024 146.467 34.408C147.347 34.776 148.099 35.288 148.723 35.944C149.363 36.6 149.827 37.36 150.115 38.224L147.763 39.256C147.411 38.312 146.859 37.584 146.107 37.072C145.371 36.56 144.515 36.304 143.539 36.304C142.947 36.304 142.427 36.408 141.979 36.616C141.531 36.808 141.179 37.096 140.923 37.48C140.683 37.848 140.563 38.28 140.563 38.776C140.563 39.352 140.747 39.864 141.115 40.312C141.483 40.76 142.043 41.096 142.795 41.32L145.915 42.304C147.339 42.736 148.411 43.36 149.131 44.176C149.851 44.976 150.211 45.976 150.211 47.176C150.211 48.168 149.947 49.048 149.419 49.816C148.907 50.584 148.195 51.192 147.283 51.64C146.371 52.072 145.315 52.288 144.115 52.288ZM158.79 52V34.12H161.622V52H158.79ZM179.105 52.288C177.841 52.288 176.665 52.056 175.577 51.592C174.505 51.128 173.561 50.488 172.745 49.672C171.945 48.84 171.321 47.864 170.873 46.744C170.425 45.624 170.201 44.392 170.201 43.048C170.201 41.72 170.417 40.496 170.849 39.376C171.297 38.24 171.921 37.264 172.721 36.448C173.521 35.616 174.457 34.976 175.529 34.528C176.601 34.064 177.777 33.832 179.057 33.832C180.321 33.832 181.449 34.048 182.441 34.48C183.449 34.912 184.297 35.48 184.985 36.184C185.673 36.872 186.169 37.624 186.473 38.44L183.953 39.664C183.585 38.688 182.977 37.904 182.129 37.312C181.281 36.704 180.257 36.4 179.057 36.4C177.873 36.4 176.825 36.68 175.913 37.24C175.001 37.8 174.289 38.576 173.777 39.568C173.281 40.56 173.033 41.72 173.033 43.048C173.033 44.376 173.289 45.544 173.801 46.552C174.329 47.544 175.049 48.32 175.961 48.88C176.873 49.424 177.921 49.696 179.105 49.696C180.097 49.696 181.001 49.496 181.817 49.096C182.649 48.68 183.313 48.104 183.809 47.368C184.305 46.616 184.553 45.744 184.553 44.752V43.528L185.825 44.68H179.057V42.28H187.361V43.96C187.361 45.272 187.137 46.448 186.689 47.488C186.241 48.512 185.633 49.384 184.865 50.104C184.097 50.824 183.217 51.368 182.225 51.736C181.233 52.104 180.193 52.288 179.105 52.288ZM195.653 52V34.12H197.933L207.965 47.968L206.885 48.136V34.12H209.693V52H207.413L197.453 38.056L198.485 37.864V52H195.653Z" fill="#323E48"/>
</svg>
