<svg width="227" height="217" viewBox="0 0 227 217" fill="none" xmlns="http://www.w3.org/2000/svg">
<path d="M10.4307 210.026V191.253H16.7302C17.9229 191.253 18.9728 191.488 19.8799 191.959C20.787 192.429 21.4926 193.093 21.9965 193.949C22.5173 194.806 22.7777 195.797 22.7777 196.923C22.7777 198.048 22.5173 199.039 21.9965 199.896C21.4926 200.736 20.787 201.4 19.8799 201.887C18.9896 202.357 17.9397 202.592 16.7302 202.592H12.0686V210.026H10.4307ZM12.0686 201.08H16.7806C17.6373 201.08 18.3932 200.912 19.0484 200.576C19.7035 200.224 20.2159 199.736 20.5854 199.115C20.955 198.477 21.1398 197.737 21.1398 196.898C21.1398 196.058 20.955 195.335 20.5854 194.731C20.2159 194.109 19.7035 193.63 19.0484 193.294C18.3932 192.941 17.6373 192.765 16.7806 192.765H12.0686V201.08ZM26.3697 210.026V196.646H27.8816V199.14L27.6044 198.913C27.89 198.157 28.3772 197.561 29.0659 197.124C29.7715 196.688 30.603 196.469 31.5605 196.469H32.4172V197.981H31.3841C30.2922 197.981 29.4355 198.334 28.8139 199.039C28.1924 199.728 27.8816 200.66 27.8816 201.836V210.026H26.3697ZM41.1324 210.328C39.8557 210.328 38.705 210.026 37.6802 209.421C36.6555 208.816 35.8408 207.985 35.236 206.926C34.6481 205.851 34.3541 204.65 34.3541 203.323C34.3541 201.996 34.6481 200.803 35.236 199.745C35.8408 198.687 36.6471 197.855 37.655 197.25C38.6798 196.646 39.8389 196.343 41.1324 196.343C42.4091 196.343 43.5598 196.646 44.5845 197.25C45.6092 197.855 46.4155 198.687 47.0035 199.745C47.5914 200.786 47.8854 201.979 47.8854 203.323C47.8854 204.667 47.583 205.868 46.9783 206.926C46.3735 207.985 45.5588 208.816 44.5341 209.421C43.5262 210.026 42.3923 210.328 41.1324 210.328ZM41.1324 208.841C42.0899 208.841 42.955 208.606 43.7277 208.136C44.5173 207.649 45.1388 206.985 45.5924 206.145C46.0459 205.305 46.2727 204.365 46.2727 203.323C46.2727 202.281 46.0459 201.349 45.5924 200.526C45.1388 199.703 44.5257 199.048 43.7529 198.561C42.9802 198.073 42.1067 197.83 41.1324 197.83C40.158 197.83 39.2761 198.073 38.4866 198.561C37.7138 199.031 37.1007 199.686 36.6471 200.526C36.1936 201.349 35.9668 202.281 35.9668 203.323C35.9668 204.365 36.1936 205.305 36.6471 206.145C37.1175 206.985 37.739 207.649 38.5118 208.136C39.2845 208.606 40.158 208.841 41.1324 208.841ZM57.5407 210.328C56.2976 210.328 55.1721 210.026 54.1642 209.421C53.1731 208.799 52.3919 207.959 51.8208 206.901C51.2496 205.843 50.9641 204.65 50.9641 203.323C50.9641 201.996 51.2496 200.803 51.8208 199.745C52.3919 198.687 53.1731 197.855 54.1642 197.25C55.1721 196.646 56.2976 196.343 57.5407 196.343C58.767 196.343 59.8589 196.637 60.8164 197.225C61.774 197.796 62.4963 198.569 62.9835 199.543L62.7315 200.022V190.951H64.2434V210.026H62.7315V206.624L62.9835 206.977C62.5131 208.018 61.7908 208.841 60.8164 209.446C59.8589 210.034 58.767 210.328 57.5407 210.328ZM57.5911 208.816C58.5654 208.816 59.4306 208.581 60.1865 208.111C60.9592 207.623 61.5724 206.968 62.0259 206.145C62.4795 205.305 62.7063 204.365 62.7063 203.323C62.7063 202.281 62.4795 201.349 62.0259 200.526C61.5724 199.703 60.9592 199.056 60.1865 198.586C59.4306 198.099 58.5654 197.855 57.5911 197.855C56.6336 197.855 55.7769 198.099 55.0209 198.586C54.265 199.056 53.6686 199.703 53.2319 200.526C52.7951 201.349 52.5767 202.281 52.5767 203.323C52.5767 204.365 52.7951 205.305 53.2319 206.145C53.6686 206.968 54.265 207.623 55.0209 208.111C55.7769 208.581 56.6336 208.816 57.5911 208.816ZM73.1609 210.328C72.2537 210.328 71.4138 210.118 70.6411 209.698C69.8851 209.278 69.2804 208.69 68.8268 207.934C68.3733 207.161 68.1465 206.246 68.1465 205.188V196.646H69.6583V205.062C69.6583 205.851 69.8179 206.532 70.1371 207.103C70.4731 207.657 70.9182 208.085 71.4726 208.388C72.0437 208.69 72.6821 208.841 73.3876 208.841C74.1604 208.841 74.8239 208.665 75.3783 208.312C75.9494 207.959 76.3862 207.472 76.6886 206.851C76.9909 206.212 77.1421 205.49 77.1421 204.684V196.646H78.654V210.026H77.1421V207.304L77.5201 207.43C77.2177 208.304 76.6802 209.009 75.9074 209.547C75.1347 210.068 74.2192 210.328 73.1609 210.328ZM88.9414 210.328C87.6647 210.328 86.5224 210.026 85.5145 209.421C84.5234 208.799 83.7339 207.959 83.1459 206.901C82.5748 205.843 82.2892 204.65 82.2892 203.323C82.2892 201.979 82.5748 200.786 83.1459 199.745C83.7339 198.687 84.5234 197.855 85.5145 197.25C86.5224 196.646 87.6647 196.343 88.9414 196.343C89.7814 196.343 90.5541 196.486 91.2596 196.772C91.982 197.057 92.6203 197.443 93.1747 197.931C93.729 198.418 94.149 198.981 94.4346 199.619L93.0991 200.324C92.6959 199.552 92.1332 198.939 91.4108 198.485C90.6885 198.031 89.8653 197.805 88.9414 197.805C87.9839 197.805 87.1188 198.04 86.346 198.51C85.5901 198.981 84.9854 199.636 84.5318 200.476C84.0782 201.299 83.8514 202.248 83.8514 203.323C83.8514 204.398 84.0782 205.356 84.5318 206.196C84.9854 207.019 85.5901 207.665 86.346 208.136C87.1188 208.606 87.9839 208.841 88.9414 208.841C89.8653 208.841 90.6885 208.615 91.4108 208.161C92.1332 207.707 92.6959 207.086 93.0991 206.296L94.4346 207.027C94.149 207.649 93.729 208.211 93.1747 208.715C92.6203 209.203 91.982 209.597 91.2596 209.9C90.5541 210.185 89.7814 210.328 88.9414 210.328ZM102.914 210.177C101.805 210.177 100.949 209.866 100.344 209.244C99.7391 208.606 99.4367 207.682 99.4367 206.473V198.082H96.917V196.646H97.8745C98.3784 196.646 98.7648 196.494 99.0336 196.192C99.3024 195.89 99.4367 195.478 99.4367 194.957V193.521H100.949V196.646H103.872V198.082H100.949V206.473C100.949 206.842 100.999 207.203 101.1 207.556C101.217 207.909 101.436 208.195 101.755 208.413C102.074 208.631 102.536 208.741 103.141 208.741C103.275 208.741 103.435 208.732 103.62 208.715C103.821 208.699 103.981 208.682 104.098 208.665V210.026C103.914 210.076 103.704 210.11 103.468 210.126C103.233 210.16 103.048 210.177 102.914 210.177ZM112.157 210.026V191.253H118.23C120.078 191.253 121.674 191.64 123.018 192.412C124.378 193.168 125.428 194.252 126.167 195.663C126.907 197.057 127.276 198.712 127.276 200.627C127.276 202.525 126.907 204.18 126.167 205.591C125.428 207.002 124.378 208.094 123.018 208.867C121.674 209.639 120.078 210.026 118.23 210.026H112.157ZM113.795 208.514H118.205C119.7 208.514 120.993 208.186 122.085 207.531C123.194 206.876 124.051 205.96 124.656 204.784C125.277 203.592 125.588 202.206 125.588 200.627C125.588 199.031 125.277 197.645 124.656 196.469C124.051 195.293 123.194 194.386 122.085 193.748C120.977 193.093 119.683 192.765 118.205 192.765H113.795V208.514ZM136.729 210.328C135.47 210.328 134.336 210.026 133.328 209.421C132.32 208.799 131.522 207.959 130.934 206.901C130.346 205.826 130.052 204.625 130.052 203.298C130.052 201.971 130.338 200.786 130.909 199.745C131.48 198.687 132.253 197.855 133.227 197.25C134.201 196.646 135.293 196.343 136.503 196.343C137.427 196.343 138.258 196.511 138.997 196.847C139.753 197.183 140.4 197.653 140.937 198.258C141.492 198.846 141.912 199.527 142.197 200.299C142.5 201.055 142.651 201.853 142.651 202.693C142.651 202.861 142.643 203.037 142.626 203.222C142.609 203.407 142.584 203.6 142.55 203.802H130.934V202.416H141.693L141.013 202.945C141.114 201.971 140.971 201.097 140.585 200.324C140.198 199.535 139.644 198.913 138.922 198.46C138.216 197.989 137.41 197.754 136.503 197.754C135.596 197.754 134.764 197.998 134.008 198.485C133.252 198.955 132.656 199.611 132.219 200.45C131.782 201.274 131.581 202.231 131.614 203.323C131.581 204.415 131.791 205.381 132.244 206.221C132.698 207.061 133.319 207.724 134.109 208.211C134.898 208.682 135.772 208.917 136.729 208.917C137.704 208.917 138.552 208.69 139.274 208.237C139.997 207.766 140.585 207.145 141.038 206.372L142.323 207.052C142.021 207.674 141.593 208.237 141.038 208.741C140.484 209.228 139.837 209.614 139.098 209.9C138.376 210.185 137.586 210.328 136.729 210.328ZM150.767 210.328C149.524 210.328 148.432 210.017 147.491 209.396C146.551 208.774 145.862 207.926 145.425 206.851L146.735 206.246C147.155 207.069 147.718 207.724 148.424 208.211C149.129 208.682 149.91 208.917 150.767 208.917C151.641 208.917 152.371 208.707 152.959 208.287C153.564 207.85 153.866 207.279 153.866 206.574C153.866 206.137 153.749 205.767 153.514 205.465C153.295 205.162 153.01 204.919 152.657 204.734C152.304 204.532 151.926 204.381 151.523 204.281L149.457 203.701C148.298 203.382 147.441 202.911 146.887 202.29C146.349 201.668 146.08 200.938 146.08 200.098C146.08 199.342 146.273 198.687 146.66 198.132C147.046 197.561 147.567 197.124 148.222 196.822C148.877 196.503 149.6 196.343 150.389 196.343C151.498 196.343 152.506 196.629 153.413 197.2C154.32 197.771 154.958 198.544 155.328 199.518L153.967 200.148C153.614 199.392 153.119 198.804 152.48 198.384C151.842 197.947 151.137 197.729 150.364 197.729C149.558 197.729 148.902 197.947 148.398 198.384C147.894 198.804 147.642 199.342 147.642 199.997C147.642 200.417 147.743 200.77 147.945 201.055C148.146 201.324 148.407 201.551 148.726 201.736C149.062 201.904 149.406 202.038 149.759 202.139L152.002 202.794C153.094 203.096 153.934 203.575 154.522 204.23C155.126 204.885 155.429 205.658 155.429 206.548C155.429 207.271 155.227 207.917 154.824 208.489C154.421 209.06 153.866 209.513 153.161 209.849C152.455 210.168 151.657 210.328 150.767 210.328ZM159.052 210.026V196.646H160.564V210.026H159.052ZM159.052 194.025V191.253H160.564V194.025H159.052ZM170.961 215.569C170.071 215.569 169.248 215.426 168.492 215.141C167.736 214.855 167.081 214.469 166.526 213.982C165.972 213.495 165.535 212.94 165.216 212.319L166.577 211.588C166.946 212.31 167.501 212.907 168.24 213.377C168.996 213.847 169.894 214.082 170.936 214.082C171.776 214.082 172.557 213.915 173.279 213.579C174.002 213.259 174.59 212.755 175.043 212.067C175.514 211.395 175.749 210.546 175.749 209.522V206.12L176.026 206.473C175.556 207.514 174.842 208.337 173.884 208.942C172.927 209.53 171.86 209.824 170.684 209.824C169.441 209.824 168.324 209.522 167.333 208.917C166.342 208.312 165.56 207.497 164.989 206.473C164.435 205.448 164.158 204.314 164.158 203.071C164.158 201.828 164.435 200.702 164.989 199.694C165.56 198.67 166.333 197.855 167.307 197.25C168.299 196.646 169.424 196.343 170.684 196.343C171.86 196.343 172.918 196.637 173.859 197.225C174.8 197.796 175.522 198.569 176.026 199.543L175.749 200.022V196.646H177.261V209.522C177.261 210.681 176.992 211.714 176.454 212.621C175.917 213.545 175.169 214.267 174.212 214.788C173.271 215.309 172.187 215.569 170.961 215.569ZM170.734 208.312C171.675 208.312 172.515 208.077 173.254 207.607C174.01 207.136 174.606 206.506 175.043 205.717C175.48 204.91 175.698 204.029 175.698 203.071C175.698 202.113 175.48 201.24 175.043 200.45C174.606 199.661 174.01 199.031 173.254 198.561C172.515 198.09 171.675 197.855 170.734 197.855C169.777 197.855 168.92 198.09 168.164 198.561C167.408 199.031 166.82 199.661 166.4 200.45C165.98 201.24 165.77 202.113 165.77 203.071C165.77 204.029 165.98 204.91 166.4 205.717C166.82 206.506 167.4 207.136 168.139 207.607C168.895 208.077 169.76 208.312 170.734 208.312ZM181.42 210.026V196.646H182.932V199.342L182.554 199.241C182.857 198.351 183.394 197.645 184.167 197.124C184.957 196.604 185.872 196.343 186.914 196.343C187.838 196.343 188.677 196.553 189.433 196.973C190.189 197.393 190.794 197.981 191.248 198.737C191.701 199.476 191.928 200.324 191.928 201.282V210.026H190.416V201.71C190.416 200.904 190.257 200.215 189.937 199.644C189.618 199.056 189.173 198.611 188.602 198.309C188.047 197.989 187.409 197.83 186.687 197.83C185.931 197.83 185.267 198.006 184.696 198.359C184.125 198.712 183.688 199.199 183.386 199.82C183.084 200.442 182.932 201.156 182.932 201.962V210.026H181.42ZM201.963 210.328C200.704 210.328 199.57 210.026 198.562 209.421C197.554 208.799 196.756 207.959 196.168 206.901C195.58 205.826 195.286 204.625 195.286 203.298C195.286 201.971 195.572 200.786 196.143 199.745C196.714 198.687 197.487 197.855 198.461 197.25C199.435 196.646 200.527 196.343 201.737 196.343C202.661 196.343 203.492 196.511 204.231 196.847C204.987 197.183 205.634 197.653 206.171 198.258C206.726 198.846 207.146 199.527 207.431 200.299C207.734 201.055 207.885 201.853 207.885 202.693C207.885 202.861 207.877 203.037 207.86 203.222C207.843 203.407 207.818 203.6 207.784 203.802H196.168V202.416H206.927L206.247 202.945C206.348 201.971 206.205 201.097 205.819 200.324C205.432 199.535 204.878 198.913 204.156 198.46C203.45 197.989 202.644 197.754 201.737 197.754C200.83 197.754 199.998 197.998 199.242 198.485C198.486 198.955 197.89 199.611 197.453 200.45C197.016 201.274 196.815 202.231 196.848 203.323C196.815 204.415 197.025 205.381 197.478 206.221C197.932 207.061 198.553 207.724 199.343 208.211C200.132 208.682 201.006 208.917 201.963 208.917C202.938 208.917 203.786 208.69 204.508 208.237C205.231 207.766 205.819 207.145 206.272 206.372L207.557 207.052C207.255 207.674 206.827 208.237 206.272 208.741C205.718 209.228 205.071 209.614 204.332 209.9C203.61 210.185 202.82 210.328 201.963 210.328ZM211.491 210.026V196.646H213.002V199.14L212.725 198.913C213.011 198.157 213.498 197.561 214.187 197.124C214.892 196.688 215.724 196.469 216.681 196.469H217.538V197.981H216.505C215.413 197.981 214.556 198.334 213.935 199.039C213.313 199.728 213.002 200.66 213.002 201.836V210.026H211.491Z" fill="#323E48"/>
<path d="M0.608433 166.333L7.15603 147.715H10.8047L17.3523 166.333H14.2034L12.779 162.16H5.20675L3.75728 166.333H0.608433ZM6.05643 159.536H11.8793L8.58051 149.789H9.4052L6.05643 159.536ZM33.0992 166.633C31.7831 166.633 30.5585 166.391 29.4256 165.908C28.3093 165.425 27.3347 164.759 26.5017 163.909C25.6853 163.043 25.0439 162.026 24.5774 160.86C24.1109 159.694 23.8776 158.411 23.8776 157.011C23.8776 155.629 24.1025 154.354 24.5524 153.188C25.0189 152.005 25.6686 150.989 26.5017 150.139C27.3347 149.273 28.3093 148.606 29.4256 148.14C30.5418 147.657 31.7664 147.415 33.0992 147.415C34.4154 147.415 35.59 147.64 36.6229 148.09C37.6726 148.54 38.5556 149.131 39.272 149.864C39.9884 150.58 40.5049 151.364 40.8214 152.213L38.1724 153.463C37.7725 152.463 37.1311 151.655 36.2481 151.039C35.3817 150.406 34.3321 150.089 33.0992 150.089C31.8664 150.089 30.7751 150.381 29.8254 150.964C28.8758 151.547 28.1344 152.355 27.6013 153.388C27.0848 154.421 26.8265 155.629 26.8265 157.011C26.8265 158.394 27.0848 159.61 27.6013 160.66C28.1344 161.693 28.8758 162.501 29.8254 163.084C30.7751 163.651 31.8664 163.934 33.0992 163.934C34.3321 163.934 35.3817 163.626 36.2481 163.009C37.1311 162.393 37.7725 161.585 38.1724 160.585L40.8214 161.835C40.5049 162.668 39.9884 163.451 39.272 164.184C38.5556 164.917 37.6726 165.508 36.6229 165.958C35.59 166.408 34.4154 166.633 33.0992 166.633ZM58.1486 166.633C56.8325 166.633 55.6079 166.391 54.475 165.908C53.3587 165.425 52.3841 164.759 51.5511 163.909C50.7347 163.043 50.0933 162.026 49.6268 160.86C49.1603 159.694 48.927 158.411 48.927 157.011C48.927 155.629 49.1519 154.354 49.6018 153.188C50.0683 152.005 50.718 150.989 51.5511 150.139C52.3841 149.273 53.3587 148.606 54.475 148.14C55.5912 147.657 56.8158 147.415 58.1486 147.415C59.4648 147.415 60.6394 147.64 61.6723 148.09C62.722 148.54 63.605 149.131 64.3214 149.864C65.0378 150.58 65.5543 151.364 65.8708 152.213L63.2218 153.463C62.8219 152.463 62.1805 151.655 61.2975 151.039C60.4311 150.406 59.3815 150.089 58.1486 150.089C56.9158 150.089 55.8245 150.381 54.8748 150.964C53.9252 151.547 53.1838 152.355 52.6507 153.388C52.1342 154.421 51.8759 155.629 51.8759 157.011C51.8759 158.394 52.1342 159.61 52.6507 160.66C53.1838 161.693 53.9252 162.501 54.8748 163.084C55.8245 163.651 56.9158 163.934 58.1486 163.934C59.3815 163.934 60.4311 163.626 61.2975 163.009C62.1805 162.393 62.8219 161.585 63.2218 160.585L65.8708 161.835C65.5543 162.668 65.0378 163.451 64.3214 164.184C63.605 164.917 62.722 165.508 61.6723 165.958C60.6394 166.408 59.4648 166.633 58.1486 166.633ZM74.5262 166.333V147.715H86.7967V150.339H77.4751V155.687H86.2969V158.311H77.4751V163.709H86.7967V166.333H74.5262ZM105.15 166.333V147.715H111.248C113.18 147.715 114.855 148.106 116.271 148.889C117.703 149.656 118.811 150.739 119.594 152.138C120.377 153.538 120.769 155.162 120.769 157.011C120.769 158.844 120.377 160.468 119.594 161.885C118.811 163.284 117.703 164.375 116.271 165.158C114.855 165.941 113.18 166.333 111.248 166.333H105.15ZM108.099 163.709H111.297C112.614 163.709 113.755 163.434 114.721 162.884C115.704 162.334 116.462 161.56 116.995 160.56C117.529 159.56 117.795 158.378 117.795 157.011C117.795 155.645 117.52 154.471 116.97 153.488C116.437 152.488 115.688 151.713 114.721 151.164C113.755 150.614 112.614 150.339 111.297 150.339H108.099V163.709ZM129.296 166.333V147.715H141.567V150.339H132.245V155.687H141.067V158.311H132.245V163.709H141.567V166.333H129.296ZM156.451 166.633C155.285 166.633 154.202 166.416 153.202 165.983C152.202 165.533 151.353 164.925 150.653 164.159C149.953 163.392 149.437 162.509 149.104 161.51L151.603 160.46C152.052 161.61 152.711 162.493 153.577 163.109C154.443 163.726 155.443 164.034 156.576 164.034C157.242 164.034 157.825 163.934 158.325 163.734C158.825 163.517 159.208 163.217 159.475 162.834C159.758 162.451 159.9 162.01 159.9 161.51C159.9 160.827 159.708 160.285 159.325 159.885C158.942 159.486 158.375 159.169 157.625 158.936L154.127 157.836C152.727 157.403 151.661 156.745 150.928 155.862C150.195 154.962 149.828 153.913 149.828 152.713C149.828 151.663 150.087 150.747 150.603 149.964C151.119 149.164 151.828 148.54 152.727 148.09C153.644 147.64 154.685 147.415 155.851 147.415C156.967 147.415 157.984 147.615 158.9 148.015C159.816 148.398 160.599 148.931 161.249 149.614C161.915 150.297 162.399 151.089 162.699 151.988L160.249 153.063C159.883 152.08 159.308 151.322 158.525 150.789C157.759 150.256 156.867 149.989 155.851 149.989C155.235 149.989 154.693 150.097 154.227 150.314C153.76 150.514 153.394 150.814 153.127 151.214C152.877 151.597 152.752 152.047 152.752 152.563C152.752 153.163 152.944 153.696 153.327 154.162C153.71 154.629 154.293 154.979 155.076 155.212L158.325 156.237C159.808 156.687 160.924 157.336 161.674 158.186C162.424 159.019 162.799 160.06 162.799 161.31C162.799 162.343 162.524 163.259 161.974 164.059C161.441 164.859 160.699 165.492 159.75 165.958C158.8 166.408 157.7 166.633 156.451 166.633ZM171.732 166.333V147.715H174.681V166.333H171.732ZM192.886 166.633C191.569 166.633 190.345 166.391 189.212 165.908C188.096 165.425 187.113 164.759 186.263 163.909C185.43 163.043 184.78 162.026 184.314 160.86C183.847 159.694 183.614 158.411 183.614 157.011C183.614 155.629 183.839 154.354 184.289 153.188C184.755 152.005 185.405 150.989 186.238 150.139C187.071 149.273 188.046 148.606 189.162 148.14C190.278 147.657 191.503 147.415 192.836 147.415C194.152 147.415 195.326 147.64 196.359 148.09C197.409 148.54 198.292 149.131 199.008 149.864C199.725 150.58 200.241 151.364 200.558 152.213L197.934 153.488C197.55 152.471 196.917 151.655 196.034 151.039C195.151 150.406 194.085 150.089 192.836 150.089C191.603 150.089 190.511 150.381 189.562 150.964C188.612 151.547 187.871 152.355 187.338 153.388C186.821 154.421 186.563 155.629 186.563 157.011C186.563 158.394 186.829 159.61 187.363 160.66C187.912 161.693 188.662 162.501 189.612 163.084C190.561 163.651 191.653 163.934 192.886 163.934C193.918 163.934 194.86 163.726 195.709 163.309C196.576 162.876 197.267 162.276 197.784 161.51C198.3 160.727 198.558 159.819 198.558 158.786V157.511L199.883 158.711H192.836V156.212H201.482V157.961C201.482 159.327 201.249 160.552 200.783 161.635C200.316 162.701 199.683 163.609 198.883 164.359C198.084 165.108 197.167 165.675 196.134 166.058C195.101 166.441 194.018 166.633 192.886 166.633ZM210.116 166.333V147.715H212.49L222.936 162.135L221.812 162.309V147.715H224.736V166.333H222.362L211.99 151.813L213.065 151.613V166.333H210.116Z" fill="#323E48"/>
<g clip-path="url(#clip0_167_910)">
<path d="M190.967 108.585L131.211 5.39225C129.123 1.79742 125.479 0 121.835 0C118.191 0 114.547 1.79742 112.459 5.39225L101.598 24.1065L99.7933 21.0051C97.7059 17.4103 94.0618 15.6129 90.4177 15.6129C86.7736 15.6129 83.1294 17.4103 81.042 21.0051L30.3074 108.585C26.1326 115.775 31.3334 124.762 39.683 124.762H181.591C189.906 124.762 195.107 115.775 190.967 108.585ZM138.463 95.5803C139.383 97.5892 139.277 99.8448 138.145 101.783C136.907 103.933 134.678 105.202 132.201 105.202H71.0649C68.5883 105.202 66.3594 103.933 65.1211 101.783C63.8828 99.6333 63.8828 97.0958 65.1211 94.9459L101.598 32.0011L138.428 95.5803H138.463ZM187.535 117.396C186.297 119.546 184.068 120.815 181.591 120.815H39.6477C37.1711 120.815 34.9421 119.546 33.7039 117.396C32.4656 115.246 32.4656 112.709 33.7039 110.559L84.4739 22.9787C85.7122 20.8289 87.9411 19.5601 90.4177 19.5601C92.8943 19.5601 95.1232 20.8289 96.3615 22.9787L99.298 28.0538L61.6893 92.9723C57.5145 100.162 62.7153 109.149 71.0649 109.149H132.201C135.704 109.149 138.64 107.563 140.586 105.202C141.329 104.321 141.895 103.334 142.32 102.241C143.346 99.6333 143.346 96.5671 142.001 93.7476L103.897 28.0538L115.891 7.36589C117.129 5.21603 119.358 3.94727 121.835 3.94727C124.312 3.94727 126.54 5.21603 127.779 7.36589L187.535 110.559C188.774 112.709 188.774 115.246 187.535 117.396Z" fill="#323E48"/>
</g>
<defs>
<clipPath id="clip0_167_910">
<rect width="166.285" height="126.877" fill="white" transform="translate(28.8354)"/>
</clipPath>
</defs>
</svg>
