<svg width="227" height="217" viewBox="0 0 227 217" fill="none" xmlns="http://www.w3.org/2000/svg">
<path d="M11.2195 215.065V196.646H12.7314V200.022L12.4794 199.543C12.9833 198.569 13.7057 197.796 14.6464 197.225C15.6039 196.637 16.6958 196.343 17.9221 196.343C19.182 196.343 20.3075 196.646 21.2986 197.25C22.2898 197.855 23.0709 198.687 23.642 199.745C24.2132 200.803 24.4988 202.004 24.4988 203.348C24.4988 204.658 24.2132 205.843 23.642 206.901C23.0709 207.959 22.2898 208.799 21.2986 209.421C20.3075 210.026 19.182 210.328 17.9221 210.328C16.6958 210.328 15.5955 210.034 14.6212 209.446C13.6637 208.841 12.9497 208.018 12.4794 206.977L12.7314 206.624V215.065H11.2195ZM17.8717 208.816C18.8292 208.816 19.686 208.581 20.4419 208.111C21.1978 207.623 21.7942 206.968 22.231 206.145C22.6677 205.305 22.8861 204.365 22.8861 203.323C22.8861 202.281 22.6677 201.349 22.231 200.526C21.7942 199.703 21.1978 199.056 20.4419 198.586C19.686 198.099 18.8292 197.855 17.8717 197.855C16.9142 197.855 16.0491 198.099 15.2763 198.586C14.5036 199.056 13.8905 199.703 13.4369 200.526C12.9833 201.349 12.7565 202.281 12.7565 203.323C12.7565 204.365 12.9833 205.305 13.4369 206.145C13.8905 206.968 14.4952 207.623 15.2511 208.111C16.0239 208.581 16.8974 208.816 17.8717 208.816ZM28.1247 210.026V196.646H29.6366V199.14L29.3594 198.913C29.645 198.157 30.1321 197.561 30.8209 197.124C31.5264 196.688 32.358 196.469 33.3155 196.469H34.1722V197.981H33.1391C32.0472 197.981 31.1904 198.334 30.5689 199.039C29.9474 199.728 29.6366 200.66 29.6366 201.836V210.026H28.1247ZM42.8873 210.328C41.6106 210.328 40.4599 210.026 39.4352 209.421C38.4105 208.816 37.5958 207.985 36.991 206.926C36.4031 205.851 36.1091 204.65 36.1091 203.323C36.1091 201.996 36.4031 200.803 36.991 199.745C37.5958 198.687 38.4021 197.855 39.41 197.25C40.4347 196.646 41.5938 196.343 42.8873 196.343C44.164 196.343 45.3147 196.646 46.3394 197.25C47.3642 197.855 48.1705 198.687 48.7584 199.745C49.3464 200.786 49.6404 201.979 49.6404 203.323C49.6404 204.667 49.338 205.868 48.7332 206.926C48.1285 207.985 47.3138 208.816 46.289 209.421C45.2811 210.026 44.1472 210.328 42.8873 210.328ZM42.8873 208.841C43.8448 208.841 44.71 208.606 45.4827 208.136C46.2722 207.649 46.8938 206.985 47.3474 206.145C47.8009 205.305 48.0277 204.365 48.0277 203.323C48.0277 202.281 47.8009 201.349 47.3474 200.526C46.8938 199.703 46.2806 199.048 45.5079 198.561C44.7352 198.073 43.8616 197.83 42.8873 197.83C41.913 197.83 41.0311 198.073 40.2415 198.561C39.4688 199.031 38.8557 199.686 38.4021 200.526C37.9485 201.349 37.7218 202.281 37.7218 203.323C37.7218 204.365 37.9485 205.305 38.4021 206.145C38.8725 206.985 39.494 207.649 40.2667 208.136C41.0395 208.606 41.913 208.841 42.8873 208.841ZM59.2957 210.328C58.0526 210.328 56.9271 210.026 55.9192 209.421C54.928 208.799 54.1469 207.959 53.5758 206.901C53.0046 205.843 52.719 204.65 52.719 203.323C52.719 201.996 53.0046 200.803 53.5758 199.745C54.1469 198.687 54.928 197.855 55.9192 197.25C56.9271 196.646 58.0526 196.343 59.2957 196.343C60.522 196.343 61.6139 196.637 62.5714 197.225C63.5289 197.796 64.2513 198.569 64.7384 199.543L64.4864 200.022V190.951H65.9983V210.026H64.4864V206.624L64.7384 206.977C64.2681 208.018 63.5457 208.841 62.5714 209.446C61.6139 210.034 60.522 210.328 59.2957 210.328ZM59.3461 208.816C60.3204 208.816 61.1855 208.581 61.9415 208.111C62.7142 207.623 63.3273 206.968 63.7809 206.145C64.2345 205.305 64.4613 204.365 64.4613 203.323C64.4613 202.281 64.2345 201.349 63.7809 200.526C63.3273 199.703 62.7142 199.056 61.9415 198.586C61.1855 198.099 60.3204 197.855 59.3461 197.855C58.3886 197.855 57.5318 198.099 56.7759 198.586C56.02 199.056 55.4236 199.703 54.9868 200.526C54.5501 201.349 54.3317 202.281 54.3317 203.323C54.3317 204.365 54.5501 205.305 54.9868 206.145C55.4236 206.968 56.02 207.623 56.7759 208.111C57.5318 208.581 58.3886 208.816 59.3461 208.816ZM74.9158 210.328C74.0087 210.328 73.1688 210.118 72.396 209.698C71.6401 209.278 71.0353 208.69 70.5818 207.934C70.1282 207.161 69.9014 206.246 69.9014 205.188V196.646H71.4133V205.062C71.4133 205.851 71.5729 206.532 71.8921 207.103C72.228 207.657 72.6732 208.085 73.2276 208.388C73.7987 208.69 74.4371 208.841 75.1426 208.841C75.9153 208.841 76.5789 208.665 77.1332 208.312C77.7044 207.959 78.1411 207.472 78.4435 206.851C78.7459 206.212 78.8971 205.49 78.8971 204.684V196.646H80.409V210.026H78.8971V207.304L79.2751 207.43C78.9727 208.304 78.4351 209.009 77.6624 209.547C76.8897 210.068 75.9741 210.328 74.9158 210.328ZM90.6964 210.328C89.4197 210.328 88.2774 210.026 87.2695 209.421C86.2784 208.799 85.4888 207.959 84.9009 206.901C84.3297 205.843 84.0442 204.65 84.0442 203.323C84.0442 201.979 84.3297 200.786 84.9009 199.745C85.4888 198.687 86.2784 197.855 87.2695 197.25C88.2774 196.646 89.4197 196.343 90.6964 196.343C91.5363 196.343 92.3091 196.486 93.0146 196.772C93.7369 197.057 94.3753 197.443 94.9296 197.931C95.484 198.418 95.904 198.981 96.1895 199.619L94.854 200.324C94.4509 199.552 93.8881 198.939 93.1658 198.485C92.4435 198.031 91.6203 197.805 90.6964 197.805C89.7389 197.805 88.8737 198.04 88.101 198.51C87.3451 198.981 86.7403 199.636 86.2868 200.476C85.8332 201.299 85.6064 202.248 85.6064 203.323C85.6064 204.398 85.8332 205.356 86.2868 206.196C86.7403 207.019 87.3451 207.665 88.101 208.136C88.8737 208.606 89.7389 208.841 90.6964 208.841C91.6203 208.841 92.4435 208.615 93.1658 208.161C93.8881 207.707 94.4509 207.086 94.854 206.296L96.1895 207.027C95.904 207.649 95.484 208.211 94.9296 208.715C94.3753 209.203 93.7369 209.597 93.0146 209.9C92.3091 210.185 91.5363 210.328 90.6964 210.328ZM104.669 210.177C103.56 210.177 102.704 209.866 102.099 209.244C101.494 208.606 101.192 207.682 101.192 206.473V198.082H98.6719V196.646H99.6294C100.133 196.646 100.52 196.494 100.789 196.192C101.057 195.89 101.192 195.478 101.192 194.957V193.521H102.704V196.646H105.627V198.082H102.704V206.473C102.704 206.842 102.754 207.203 102.855 207.556C102.972 207.909 103.191 208.195 103.51 208.413C103.829 208.631 104.291 208.741 104.896 208.741C105.03 208.741 105.19 208.732 105.375 208.715C105.576 208.699 105.736 208.682 105.853 208.665V210.026C105.669 210.076 105.459 210.11 105.223 210.126C104.988 210.16 104.803 210.177 104.669 210.177ZM119.657 210.328C118.414 210.328 117.289 210.026 116.281 209.421C115.29 208.799 114.509 207.959 113.938 206.901C113.366 205.843 113.081 204.65 113.081 203.323C113.081 201.996 113.366 200.803 113.938 199.745C114.509 198.687 115.29 197.855 116.281 197.25C117.289 196.646 118.414 196.343 119.657 196.343C120.884 196.343 121.976 196.637 122.933 197.225C123.891 197.796 124.613 198.569 125.1 199.543L124.848 200.022V190.951H126.36V210.026H124.848V206.624L125.1 206.977C124.63 208.018 123.907 208.841 122.933 209.446C121.976 210.034 120.884 210.328 119.657 210.328ZM119.708 208.816C120.682 208.816 121.547 208.581 122.303 208.111C123.076 207.623 123.689 206.968 124.143 206.145C124.596 205.305 124.823 204.365 124.823 203.323C124.823 202.281 124.596 201.349 124.143 200.526C123.689 199.703 123.076 199.056 122.303 198.586C121.547 198.099 120.682 197.855 119.708 197.855C118.75 197.855 117.894 198.099 117.138 198.586C116.382 199.056 115.785 199.703 115.349 200.526C114.912 201.349 114.693 202.281 114.693 203.323C114.693 204.365 114.912 205.305 115.349 206.145C115.785 206.968 116.382 207.623 117.138 208.111C117.894 208.581 118.75 208.816 119.708 208.816ZM136.663 210.328C135.404 210.328 134.27 210.026 133.262 209.421C132.254 208.799 131.456 207.959 130.868 206.901C130.28 205.826 129.986 204.625 129.986 203.298C129.986 201.971 130.272 200.786 130.843 199.745C131.414 198.687 132.187 197.855 133.161 197.25C134.135 196.646 135.227 196.343 136.437 196.343C137.361 196.343 138.192 196.511 138.931 196.847C139.687 197.183 140.334 197.653 140.872 198.258C141.426 198.846 141.846 199.527 142.131 200.299C142.434 201.055 142.585 201.853 142.585 202.693C142.585 202.861 142.577 203.037 142.56 203.222C142.543 203.407 142.518 203.6 142.484 203.802H130.868V202.416H141.627L140.947 202.945C141.048 201.971 140.905 201.097 140.519 200.324C140.132 199.535 139.578 198.913 138.856 198.46C138.15 197.989 137.344 197.754 136.437 197.754C135.53 197.754 134.698 197.998 133.942 198.485C133.186 198.955 132.59 199.611 132.153 200.45C131.716 201.274 131.515 202.231 131.548 203.323C131.515 204.415 131.725 205.381 132.178 206.221C132.632 207.061 133.253 207.724 134.043 208.211C134.832 208.682 135.706 208.917 136.663 208.917C137.638 208.917 138.486 208.69 139.208 208.237C139.931 207.766 140.519 207.145 140.972 206.372L142.257 207.052C141.955 207.674 141.527 208.237 140.972 208.741C140.418 209.228 139.771 209.614 139.032 209.9C138.31 210.185 137.52 210.328 136.663 210.328ZM150.701 210.328C149.458 210.328 148.366 210.017 147.425 209.396C146.485 208.774 145.796 207.926 145.359 206.851L146.669 206.246C147.089 207.069 147.652 207.724 148.358 208.211C149.063 208.682 149.844 208.917 150.701 208.917C151.575 208.917 152.305 208.707 152.893 208.287C153.498 207.85 153.8 207.279 153.8 206.574C153.8 206.137 153.683 205.767 153.448 205.465C153.229 205.162 152.944 204.919 152.591 204.734C152.238 204.532 151.86 204.381 151.457 204.281L149.391 203.701C148.232 203.382 147.375 202.911 146.821 202.29C146.283 201.668 146.014 200.938 146.014 200.098C146.014 199.342 146.207 198.687 146.594 198.132C146.98 197.561 147.501 197.124 148.156 196.822C148.811 196.503 149.534 196.343 150.323 196.343C151.432 196.343 152.44 196.629 153.347 197.2C154.254 197.771 154.892 198.544 155.262 199.518L153.901 200.148C153.548 199.392 153.053 198.804 152.415 198.384C151.776 197.947 151.071 197.729 150.298 197.729C149.492 197.729 148.836 197.947 148.332 198.384C147.828 198.804 147.577 199.342 147.577 199.997C147.577 200.417 147.677 200.77 147.879 201.055C148.08 201.324 148.341 201.551 148.66 201.736C148.996 201.904 149.34 202.038 149.693 202.139L151.936 202.794C153.028 203.096 153.868 203.575 154.456 204.23C155.06 204.885 155.363 205.658 155.363 206.548C155.363 207.271 155.161 207.917 154.758 208.489C154.355 209.06 153.8 209.513 153.095 209.849C152.389 210.168 151.591 210.328 150.701 210.328ZM158.986 210.026V196.646H160.498V210.026H158.986ZM158.986 194.025V191.253H160.498V194.025H158.986ZM170.895 215.569C170.005 215.569 169.182 215.426 168.426 215.141C167.67 214.855 167.015 214.469 166.46 213.982C165.906 213.495 165.469 212.94 165.15 212.319L166.511 211.588C166.88 212.31 167.435 212.907 168.174 213.377C168.93 213.847 169.828 214.082 170.87 214.082C171.71 214.082 172.491 213.915 173.213 213.579C173.936 213.259 174.524 212.755 174.977 212.067C175.448 211.395 175.683 210.546 175.683 209.522V206.12L175.96 206.473C175.49 207.514 174.776 208.337 173.818 208.942C172.861 209.53 171.794 209.824 170.618 209.824C169.375 209.824 168.258 209.522 167.267 208.917C166.276 208.312 165.494 207.497 164.923 206.473C164.369 205.448 164.092 204.314 164.092 203.071C164.092 201.828 164.369 200.702 164.923 199.694C165.494 198.67 166.267 197.855 167.241 197.25C168.233 196.646 169.358 196.343 170.618 196.343C171.794 196.343 172.852 196.637 173.793 197.225C174.734 197.796 175.456 198.569 175.96 199.543L175.683 200.022V196.646H177.195V209.522C177.195 210.681 176.926 211.714 176.388 212.621C175.851 213.545 175.103 214.267 174.146 214.788C173.205 215.309 172.121 215.569 170.895 215.569ZM170.668 208.312C171.609 208.312 172.449 208.077 173.188 207.607C173.944 207.136 174.54 206.506 174.977 205.717C175.414 204.91 175.632 204.029 175.632 203.071C175.632 202.113 175.414 201.24 174.977 200.45C174.54 199.661 173.944 199.031 173.188 198.561C172.449 198.09 171.609 197.855 170.668 197.855C169.711 197.855 168.854 198.09 168.098 198.561C167.342 199.031 166.754 199.661 166.334 200.45C165.914 201.24 165.704 202.113 165.704 203.071C165.704 204.029 165.914 204.91 166.334 205.717C166.754 206.506 167.334 207.136 168.073 207.607C168.829 208.077 169.694 208.312 170.668 208.312ZM181.354 210.026V196.646H182.866V199.342L182.488 199.241C182.791 198.351 183.328 197.645 184.101 197.124C184.891 196.604 185.806 196.343 186.848 196.343C187.772 196.343 188.611 196.553 189.367 196.973C190.123 197.393 190.728 197.981 191.182 198.737C191.635 199.476 191.862 200.324 191.862 201.282V210.026H190.35V201.71C190.35 200.904 190.191 200.215 189.871 199.644C189.552 199.056 189.107 198.611 188.536 198.309C187.982 197.989 187.343 197.83 186.621 197.83C185.865 197.83 185.201 198.006 184.63 198.359C184.059 198.712 183.622 199.199 183.32 199.82C183.018 200.442 182.866 201.156 182.866 201.962V210.026H181.354ZM201.897 210.328C200.638 210.328 199.504 210.026 198.496 209.421C197.488 208.799 196.69 207.959 196.102 206.901C195.514 205.826 195.22 204.625 195.22 203.298C195.22 201.971 195.506 200.786 196.077 199.745C196.648 198.687 197.421 197.855 198.395 197.25C199.369 196.646 200.461 196.343 201.671 196.343C202.595 196.343 203.426 196.511 204.165 196.847C204.921 197.183 205.568 197.653 206.106 198.258C206.66 198.846 207.08 199.527 207.365 200.299C207.668 201.055 207.819 201.853 207.819 202.693C207.819 202.861 207.811 203.037 207.794 203.222C207.777 203.407 207.752 203.6 207.718 203.802H196.102V202.416H206.861L206.181 202.945C206.282 201.971 206.139 201.097 205.753 200.324C205.366 199.535 204.812 198.913 204.09 198.46C203.384 197.989 202.578 197.754 201.671 197.754C200.764 197.754 199.932 197.998 199.176 198.485C198.42 198.955 197.824 199.611 197.387 200.45C196.95 201.274 196.749 202.231 196.782 203.323C196.749 204.415 196.959 205.381 197.412 206.221C197.866 207.061 198.487 207.724 199.277 208.211C200.066 208.682 200.94 208.917 201.897 208.917C202.872 208.917 203.72 208.69 204.442 208.237C205.165 207.766 205.753 207.145 206.206 206.372L207.491 207.052C207.189 207.674 206.761 208.237 206.206 208.741C205.652 209.228 205.005 209.614 204.266 209.9C203.544 210.185 202.754 210.328 201.897 210.328ZM211.425 210.026V196.646H212.937V199.14L212.659 198.913C212.945 198.157 213.432 197.561 214.121 197.124C214.826 196.688 215.658 196.469 216.615 196.469H217.472V197.981H216.439C215.347 197.981 214.49 198.334 213.869 199.039C213.247 199.728 212.937 200.66 212.937 201.836V210.026H211.425Z" fill="#323E48"/>
<path d="M0.608433 166.333L7.15603 147.715H10.8047L17.3523 166.333H14.2034L12.779 162.16H5.20675L3.75728 166.333H0.608433ZM6.05643 159.536H11.8793L8.58051 149.789H9.4052L6.05643 159.536ZM33.0992 166.633C31.7831 166.633 30.5585 166.391 29.4256 165.908C28.3093 165.425 27.3347 164.759 26.5017 163.909C25.6853 163.043 25.0439 162.026 24.5774 160.86C24.1109 159.694 23.8776 158.411 23.8776 157.011C23.8776 155.629 24.1025 154.354 24.5524 153.188C25.0189 152.005 25.6686 150.989 26.5017 150.139C27.3347 149.273 28.3093 148.606 29.4256 148.14C30.5418 147.657 31.7664 147.415 33.0992 147.415C34.4154 147.415 35.59 147.64 36.6229 148.09C37.6726 148.54 38.5556 149.131 39.272 149.864C39.9884 150.58 40.5049 151.364 40.8214 152.213L38.1724 153.463C37.7725 152.463 37.1311 151.655 36.2481 151.039C35.3817 150.406 34.3321 150.089 33.0992 150.089C31.8664 150.089 30.7751 150.381 29.8254 150.964C28.8758 151.547 28.1344 152.355 27.6013 153.388C27.0848 154.421 26.8265 155.629 26.8265 157.011C26.8265 158.394 27.0848 159.61 27.6013 160.66C28.1344 161.693 28.8758 162.501 29.8254 163.084C30.7751 163.651 31.8664 163.934 33.0992 163.934C34.3321 163.934 35.3817 163.626 36.2481 163.009C37.1311 162.393 37.7725 161.585 38.1724 160.585L40.8214 161.835C40.5049 162.668 39.9884 163.451 39.272 164.184C38.5556 164.917 37.6726 165.508 36.6229 165.958C35.59 166.408 34.4154 166.633 33.0992 166.633ZM58.1486 166.633C56.8325 166.633 55.6079 166.391 54.475 165.908C53.3587 165.425 52.3841 164.759 51.5511 163.909C50.7347 163.043 50.0933 162.026 49.6268 160.86C49.1603 159.694 48.927 158.411 48.927 157.011C48.927 155.629 49.1519 154.354 49.6018 153.188C50.0683 152.005 50.718 150.989 51.5511 150.139C52.3841 149.273 53.3587 148.606 54.475 148.14C55.5912 147.657 56.8158 147.415 58.1486 147.415C59.4648 147.415 60.6394 147.64 61.6723 148.09C62.722 148.54 63.605 149.131 64.3214 149.864C65.0378 150.58 65.5543 151.364 65.8708 152.213L63.2218 153.463C62.8219 152.463 62.1805 151.655 61.2975 151.039C60.4311 150.406 59.3815 150.089 58.1486 150.089C56.9158 150.089 55.8245 150.381 54.8748 150.964C53.9252 151.547 53.1838 152.355 52.6507 153.388C52.1342 154.421 51.8759 155.629 51.8759 157.011C51.8759 158.394 52.1342 159.61 52.6507 160.66C53.1838 161.693 53.9252 162.501 54.8748 163.084C55.8245 163.651 56.9158 163.934 58.1486 163.934C59.3815 163.934 60.4311 163.626 61.2975 163.009C62.1805 162.393 62.8219 161.585 63.2218 160.585L65.8708 161.835C65.5543 162.668 65.0378 163.451 64.3214 164.184C63.605 164.917 62.722 165.508 61.6723 165.958C60.6394 166.408 59.4648 166.633 58.1486 166.633ZM74.5262 166.333V147.715H86.7967V150.339H77.4751V155.687H86.2969V158.311H77.4751V163.709H86.7967V166.333H74.5262ZM105.15 166.333V147.715H111.248C113.18 147.715 114.855 148.106 116.271 148.889C117.703 149.656 118.811 150.739 119.594 152.138C120.377 153.538 120.769 155.162 120.769 157.011C120.769 158.844 120.377 160.468 119.594 161.885C118.811 163.284 117.703 164.375 116.271 165.158C114.855 165.941 113.18 166.333 111.248 166.333H105.15ZM108.099 163.709H111.297C112.614 163.709 113.755 163.434 114.721 162.884C115.704 162.334 116.462 161.56 116.995 160.56C117.529 159.56 117.795 158.378 117.795 157.011C117.795 155.645 117.52 154.471 116.97 153.488C116.437 152.488 115.688 151.713 114.721 151.164C113.755 150.614 112.614 150.339 111.297 150.339H108.099V163.709ZM129.296 166.333V147.715H141.567V150.339H132.245V155.687H141.067V158.311H132.245V163.709H141.567V166.333H129.296ZM156.451 166.633C155.285 166.633 154.202 166.416 153.202 165.983C152.202 165.533 151.353 164.925 150.653 164.159C149.953 163.392 149.437 162.509 149.104 161.51L151.603 160.46C152.052 161.61 152.711 162.493 153.577 163.109C154.443 163.726 155.443 164.034 156.576 164.034C157.242 164.034 157.825 163.934 158.325 163.734C158.825 163.517 159.208 163.217 159.475 162.834C159.758 162.451 159.9 162.01 159.9 161.51C159.9 160.827 159.708 160.285 159.325 159.885C158.942 159.486 158.375 159.169 157.625 158.936L154.127 157.836C152.727 157.403 151.661 156.745 150.928 155.862C150.195 154.962 149.828 153.913 149.828 152.713C149.828 151.663 150.087 150.747 150.603 149.964C151.119 149.164 151.828 148.54 152.727 148.09C153.644 147.64 154.685 147.415 155.851 147.415C156.967 147.415 157.984 147.615 158.9 148.015C159.816 148.398 160.599 148.931 161.249 149.614C161.915 150.297 162.399 151.089 162.699 151.988L160.249 153.063C159.883 152.08 159.308 151.322 158.525 150.789C157.759 150.256 156.867 149.989 155.851 149.989C155.235 149.989 154.693 150.097 154.227 150.314C153.76 150.514 153.394 150.814 153.127 151.214C152.877 151.597 152.752 152.047 152.752 152.563C152.752 153.163 152.944 153.696 153.327 154.162C153.71 154.629 154.293 154.979 155.076 155.212L158.325 156.237C159.808 156.687 160.924 157.336 161.674 158.186C162.424 159.019 162.799 160.06 162.799 161.31C162.799 162.343 162.524 163.259 161.974 164.059C161.441 164.859 160.699 165.492 159.75 165.958C158.8 166.408 157.7 166.633 156.451 166.633ZM171.732 166.333V147.715H174.681V166.333H171.732ZM192.886 166.633C191.569 166.633 190.345 166.391 189.212 165.908C188.096 165.425 187.113 164.759 186.263 163.909C185.43 163.043 184.78 162.026 184.314 160.86C183.847 159.694 183.614 158.411 183.614 157.011C183.614 155.629 183.839 154.354 184.289 153.188C184.755 152.005 185.405 150.989 186.238 150.139C187.071 149.273 188.046 148.606 189.162 148.14C190.278 147.657 191.503 147.415 192.836 147.415C194.152 147.415 195.326 147.64 196.359 148.09C197.409 148.54 198.292 149.131 199.008 149.864C199.725 150.58 200.241 151.364 200.558 152.213L197.934 153.488C197.55 152.471 196.917 151.655 196.034 151.039C195.151 150.406 194.085 150.089 192.836 150.089C191.603 150.089 190.511 150.381 189.562 150.964C188.612 151.547 187.871 152.355 187.338 153.388C186.821 154.421 186.563 155.629 186.563 157.011C186.563 158.394 186.829 159.61 187.363 160.66C187.912 161.693 188.662 162.501 189.612 163.084C190.561 163.651 191.653 163.934 192.886 163.934C193.918 163.934 194.86 163.726 195.709 163.309C196.576 162.876 197.267 162.276 197.784 161.51C198.3 160.727 198.558 159.819 198.558 158.786V157.511L199.883 158.711H192.836V156.212H201.482V157.961C201.482 159.327 201.249 160.552 200.783 161.635C200.316 162.701 199.683 163.609 198.883 164.359C198.084 165.108 197.167 165.675 196.134 166.058C195.101 166.441 194.018 166.633 192.886 166.633ZM210.116 166.333V147.715H212.49L222.936 162.135L221.812 162.309V147.715H224.736V166.333H222.362L211.99 151.813L213.065 151.613V166.333H210.116Z" fill="#323E48"/>
<g clip-path="url(#clip0_167_910)">
<path d="M190.967 108.585L131.211 5.39225C129.123 1.79742 125.479 0 121.835 0C118.191 0 114.547 1.79742 112.459 5.39225L101.598 24.1065L99.7933 21.0051C97.7059 17.4103 94.0618 15.6129 90.4177 15.6129C86.7736 15.6129 83.1294 17.4103 81.042 21.0051L30.3074 108.585C26.1326 115.775 31.3334 124.762 39.683 124.762H181.591C189.906 124.762 195.107 115.775 190.967 108.585ZM138.463 95.5803C139.383 97.5892 139.277 99.8448 138.145 101.783C136.907 103.933 134.678 105.202 132.201 105.202H71.0649C68.5883 105.202 66.3594 103.933 65.1211 101.783C63.8828 99.6333 63.8828 97.0958 65.1211 94.9459L101.598 32.0011L138.428 95.5803H138.463ZM187.535 117.396C186.297 119.546 184.068 120.815 181.591 120.815H39.6477C37.1711 120.815 34.9421 119.546 33.7039 117.396C32.4656 115.246 32.4656 112.709 33.7039 110.559L84.4739 22.9787C85.7122 20.8289 87.9411 19.5601 90.4177 19.5601C92.8943 19.5601 95.1232 20.8289 96.3615 22.9787L99.298 28.0538L61.6893 92.9723C57.5145 100.162 62.7153 109.149 71.0649 109.149H132.201C135.704 109.149 138.64 107.563 140.586 105.202C141.329 104.321 141.895 103.334 142.32 102.241C143.346 99.6333 143.346 96.5671 142.001 93.7476L103.897 28.0538L115.891 7.36589C117.129 5.21603 119.358 3.94727 121.835 3.94727C124.312 3.94727 126.54 5.21603 127.779 7.36589L187.535 110.559C188.774 112.709 188.774 115.246 187.535 117.396Z" fill="#323E48"/>
</g>
<defs>
<clipPath id="clip0_167_910">
<rect width="166.285" height="126.877" fill="white" transform="translate(28.8354)"/>
</clipPath>
</defs>
</svg>
