<svg width="227" height="217" viewBox="0 0 227 217" fill="none" xmlns="http://www.w3.org/2000/svg">
<path d="M26.9915 210.328C25.698 210.328 24.5641 210.051 23.5898 209.496C22.6155 208.942 21.8512 208.178 21.2968 207.203C20.7592 206.212 20.4905 205.078 20.4905 203.802V191.253H22.1283V203.852C22.1283 204.826 22.3299 205.692 22.7331 206.448C23.153 207.187 23.7242 207.766 24.4465 208.186C25.1857 208.606 26.034 208.816 26.9915 208.816C27.949 208.816 28.789 208.606 29.5113 208.186C30.2505 207.766 30.8216 207.187 31.2248 206.448C31.6279 205.692 31.8295 204.826 31.8295 203.852V191.253H33.4674V203.802C33.4674 205.078 33.1986 206.212 32.6611 207.203C32.1235 208.178 31.3676 208.942 30.3932 209.496C29.4189 210.051 28.285 210.328 26.9915 210.328ZM36.1714 210.026L42.2441 200.425L36.3982 191.253H38.3133L43.4284 199.342H43.0001L48.1152 191.253H50.0051L44.1592 200.425L50.2823 210.026H48.3672L43.0001 201.509H43.4284L38.0613 210.026H36.1714ZM54.8887 213.049L63.4056 192.261H65.1947L56.6778 213.049H54.8887ZM78.1747 210.328C76.8813 210.328 75.7474 210.051 74.773 209.496C73.7987 208.942 73.0344 208.178 72.48 207.203C71.9425 206.212 71.6737 205.078 71.6737 203.802V191.253H73.3116V203.852C73.3116 204.826 73.5131 205.692 73.9163 206.448C74.3363 207.187 74.9074 207.766 75.6298 208.186C76.3689 208.606 77.2172 208.816 78.1747 208.816C79.1323 208.816 79.9722 208.606 80.6945 208.186C81.4337 207.766 82.0048 207.187 82.408 206.448C82.8112 205.692 83.0127 204.826 83.0127 203.852V191.253H84.6506V203.802C84.6506 205.078 84.3818 206.212 83.8443 207.203C83.3067 208.178 82.5508 208.942 81.5765 209.496C80.6021 210.051 79.4682 210.328 78.1747 210.328ZM89.2949 210.026V191.253H90.9328V210.026H89.2949ZM99.8022 210.026V191.253H105.875C107.723 191.253 109.319 191.64 110.663 192.412C112.023 193.168 113.073 194.252 113.812 195.663C114.551 197.057 114.921 198.712 114.921 200.627C114.921 202.525 114.551 204.18 113.812 205.591C113.073 207.002 112.023 208.094 110.663 208.867C109.319 209.639 107.723 210.026 105.875 210.026H99.8022ZM101.44 208.514H105.85C107.345 208.514 108.638 208.186 109.73 207.531C110.839 206.876 111.696 205.96 112.3 204.784C112.922 203.592 113.233 202.206 113.233 200.627C113.233 199.031 112.922 197.645 112.3 196.469C111.696 195.293 110.839 194.386 109.73 193.748C108.621 193.093 107.328 192.765 105.85 192.765H101.44V208.514ZM124.374 210.328C123.114 210.328 121.98 210.026 120.973 209.421C119.965 208.799 119.167 207.959 118.579 206.901C117.991 205.826 117.697 204.625 117.697 203.298C117.697 201.971 117.982 200.786 118.554 199.745C119.125 198.687 119.897 197.855 120.872 197.25C121.846 196.646 122.938 196.343 124.148 196.343C125.071 196.343 125.903 196.511 126.642 196.847C127.398 197.183 128.045 197.653 128.582 198.258C129.137 198.846 129.557 199.527 129.842 200.299C130.145 201.055 130.296 201.853 130.296 202.693C130.296 202.861 130.287 203.037 130.271 203.222C130.254 203.407 130.229 203.6 130.195 203.802H118.579V202.416H129.338L128.658 202.945C128.759 201.971 128.616 201.097 128.23 200.324C127.843 199.535 127.289 198.913 126.567 198.46C125.861 197.989 125.055 197.754 124.148 197.754C123.24 197.754 122.409 197.998 121.653 198.485C120.897 198.955 120.301 199.611 119.864 200.45C119.427 201.274 119.226 202.231 119.259 203.323C119.226 204.415 119.436 205.381 119.889 206.221C120.343 207.061 120.964 207.724 121.754 208.211C122.543 208.682 123.417 208.917 124.374 208.917C125.349 208.917 126.197 208.69 126.919 208.237C127.642 207.766 128.23 207.145 128.683 206.372L129.968 207.052C129.666 207.674 129.237 208.237 128.683 208.741C128.129 209.228 127.482 209.614 126.743 209.9C126.021 210.185 125.231 210.328 124.374 210.328ZM138.412 210.328C137.169 210.328 136.077 210.017 135.136 209.396C134.195 208.774 133.507 207.926 133.07 206.851L134.38 206.246C134.8 207.069 135.363 207.724 136.068 208.211C136.774 208.682 137.555 208.917 138.412 208.917C139.285 208.917 140.016 208.707 140.604 208.287C141.209 207.85 141.511 207.279 141.511 206.574C141.511 206.137 141.394 205.767 141.158 205.465C140.94 205.162 140.655 204.919 140.302 204.734C139.949 204.532 139.571 204.381 139.168 204.281L137.102 203.701C135.942 203.382 135.086 202.911 134.531 202.29C133.994 201.668 133.725 200.938 133.725 200.098C133.725 199.342 133.918 198.687 134.305 198.132C134.691 197.561 135.212 197.124 135.867 196.822C136.522 196.503 137.244 196.343 138.034 196.343C139.143 196.343 140.151 196.629 141.058 197.2C141.965 197.771 142.603 198.544 142.973 199.518L141.612 200.148C141.259 199.392 140.764 198.804 140.125 198.384C139.487 197.947 138.781 197.729 138.009 197.729C137.202 197.729 136.547 197.947 136.043 198.384C135.539 198.804 135.287 199.342 135.287 199.997C135.287 200.417 135.388 200.77 135.59 201.055C135.791 201.324 136.052 201.551 136.371 201.736C136.707 201.904 137.051 202.038 137.404 202.139L139.647 202.794C140.738 203.096 141.578 203.575 142.166 204.23C142.771 204.885 143.074 205.658 143.074 206.548C143.074 207.271 142.872 207.917 142.469 208.489C142.066 209.06 141.511 209.513 140.806 209.849C140.1 210.168 139.302 210.328 138.412 210.328ZM146.697 210.026V196.646H148.209V210.026H146.697ZM146.697 194.025V191.253H148.209V194.025H146.697ZM158.606 215.569C157.716 215.569 156.893 215.426 156.137 215.141C155.381 214.855 154.726 214.469 154.171 213.982C153.617 213.495 153.18 212.94 152.861 212.319L154.222 211.588C154.591 212.31 155.146 212.907 155.885 213.377C156.641 213.847 157.539 214.082 158.581 214.082C159.421 214.082 160.202 213.915 160.924 213.579C161.647 213.259 162.235 212.755 162.688 212.067C163.158 211.395 163.394 210.546 163.394 209.522V206.12L163.671 206.473C163.2 207.514 162.487 208.337 161.529 208.942C160.571 209.53 159.505 209.824 158.329 209.824C157.086 209.824 155.969 209.522 154.978 208.917C153.986 208.312 153.205 207.497 152.634 206.473C152.08 205.448 151.803 204.314 151.803 203.071C151.803 201.828 152.08 200.702 152.634 199.694C153.205 198.67 153.978 197.855 154.952 197.25C155.943 196.646 157.069 196.343 158.329 196.343C159.505 196.343 160.563 196.637 161.504 197.225C162.445 197.796 163.167 198.569 163.671 199.543L163.394 200.022V196.646H164.906V209.522C164.906 210.681 164.637 211.714 164.099 212.621C163.562 213.545 162.814 214.267 161.857 214.788C160.916 215.309 159.832 215.569 158.606 215.569ZM158.379 208.312C159.32 208.312 160.16 208.077 160.899 207.607C161.655 207.136 162.251 206.506 162.688 205.717C163.125 204.91 163.343 204.029 163.343 203.071C163.343 202.113 163.125 201.24 162.688 200.45C162.251 199.661 161.655 199.031 160.899 198.561C160.16 198.09 159.32 197.855 158.379 197.855C157.422 197.855 156.565 198.09 155.809 198.561C155.053 199.031 154.465 199.661 154.045 200.45C153.625 201.24 153.415 202.113 153.415 203.071C153.415 204.029 153.625 204.91 154.045 205.717C154.465 206.506 155.045 207.136 155.784 207.607C156.54 208.077 157.405 208.312 158.379 208.312ZM169.065 210.026V196.646H170.577V199.342L170.199 199.241C170.502 198.351 171.039 197.645 171.812 197.124C172.601 196.604 173.517 196.343 174.558 196.343C175.482 196.343 176.322 196.553 177.078 196.973C177.834 197.393 178.439 197.981 178.893 198.737C179.346 199.476 179.573 200.324 179.573 201.282V210.026H178.061V201.71C178.061 200.904 177.901 200.215 177.582 199.644C177.263 199.056 176.818 198.611 176.247 198.309C175.692 197.989 175.054 197.83 174.332 197.83C173.576 197.83 172.912 198.006 172.341 198.359C171.77 198.712 171.333 199.199 171.031 199.82C170.728 200.442 170.577 201.156 170.577 201.962V210.026H169.065ZM189.608 210.328C188.348 210.328 187.214 210.026 186.207 209.421C185.199 208.799 184.401 207.959 183.813 206.901C183.225 205.826 182.931 204.625 182.931 203.298C182.931 201.971 183.216 200.786 183.788 199.745C184.359 198.687 185.131 197.855 186.106 197.25C187.08 196.646 188.172 196.343 189.382 196.343C190.305 196.343 191.137 196.511 191.876 196.847C192.632 197.183 193.279 197.653 193.816 198.258C194.371 198.846 194.791 199.527 195.076 200.299C195.379 201.055 195.53 201.853 195.53 202.693C195.53 202.861 195.521 203.037 195.505 203.222C195.488 203.407 195.463 203.6 195.429 203.802H183.813V202.416H194.572L193.892 202.945C193.993 201.971 193.85 201.097 193.464 200.324C193.077 199.535 192.523 198.913 191.801 198.46C191.095 197.989 190.289 197.754 189.382 197.754C188.474 197.754 187.643 197.998 186.887 198.485C186.131 198.955 185.535 199.611 185.098 200.45C184.661 201.274 184.46 202.231 184.493 203.323C184.46 204.415 184.67 205.381 185.123 206.221C185.577 207.061 186.198 207.724 186.988 208.211C187.777 208.682 188.651 208.917 189.608 208.917C190.583 208.917 191.431 208.69 192.153 208.237C192.876 207.766 193.464 207.145 193.917 206.372L195.202 207.052C194.9 207.674 194.471 208.237 193.917 208.741C193.363 209.228 192.716 209.614 191.977 209.9C191.255 210.185 190.465 210.328 189.608 210.328ZM199.135 210.026V196.646H200.647V199.14L200.37 198.913C200.656 198.157 201.143 197.561 201.832 197.124C202.537 196.688 203.369 196.469 204.326 196.469H205.183V197.981H204.15C203.058 197.981 202.201 198.334 201.58 199.039C200.958 199.728 200.647 200.66 200.647 201.836V210.026H199.135Z" fill="#323E48"/>
<path d="M0.608433 166.333L7.15603 147.715H10.8047L17.3523 166.333H14.2034L12.779 162.16H5.20675L3.75728 166.333H0.608433ZM6.05643 159.536H11.8793L8.58051 149.789H9.4052L6.05643 159.536ZM33.0992 166.633C31.7831 166.633 30.5585 166.391 29.4256 165.908C28.3093 165.425 27.3347 164.759 26.5017 163.909C25.6853 163.043 25.0439 162.026 24.5774 160.86C24.1109 159.694 23.8776 158.411 23.8776 157.011C23.8776 155.629 24.1025 154.354 24.5524 153.188C25.0189 152.005 25.6686 150.989 26.5017 150.139C27.3347 149.273 28.3093 148.606 29.4256 148.14C30.5418 147.657 31.7664 147.415 33.0992 147.415C34.4154 147.415 35.59 147.64 36.6229 148.09C37.6726 148.54 38.5556 149.131 39.272 149.864C39.9884 150.58 40.5049 151.364 40.8214 152.213L38.1724 153.463C37.7725 152.463 37.1311 151.655 36.2481 151.039C35.3817 150.406 34.3321 150.089 33.0992 150.089C31.8664 150.089 30.7751 150.381 29.8254 150.964C28.8758 151.547 28.1344 152.355 27.6013 153.388C27.0848 154.421 26.8265 155.629 26.8265 157.011C26.8265 158.394 27.0848 159.61 27.6013 160.66C28.1344 161.693 28.8758 162.501 29.8254 163.084C30.7751 163.651 31.8664 163.934 33.0992 163.934C34.3321 163.934 35.3817 163.626 36.2481 163.009C37.1311 162.393 37.7725 161.585 38.1724 160.585L40.8214 161.835C40.5049 162.668 39.9884 163.451 39.272 164.184C38.5556 164.917 37.6726 165.508 36.6229 165.958C35.59 166.408 34.4154 166.633 33.0992 166.633ZM58.1486 166.633C56.8325 166.633 55.6079 166.391 54.475 165.908C53.3587 165.425 52.3841 164.759 51.5511 163.909C50.7347 163.043 50.0933 162.026 49.6268 160.86C49.1603 159.694 48.927 158.411 48.927 157.011C48.927 155.629 49.1519 154.354 49.6018 153.188C50.0683 152.005 50.718 150.989 51.5511 150.139C52.3841 149.273 53.3587 148.606 54.475 148.14C55.5912 147.657 56.8158 147.415 58.1486 147.415C59.4648 147.415 60.6394 147.64 61.6723 148.09C62.722 148.54 63.605 149.131 64.3214 149.864C65.0378 150.58 65.5543 151.364 65.8708 152.213L63.2218 153.463C62.8219 152.463 62.1805 151.655 61.2975 151.039C60.4311 150.406 59.3815 150.089 58.1486 150.089C56.9158 150.089 55.8245 150.381 54.8748 150.964C53.9252 151.547 53.1838 152.355 52.6507 153.388C52.1342 154.421 51.8759 155.629 51.8759 157.011C51.8759 158.394 52.1342 159.61 52.6507 160.66C53.1838 161.693 53.9252 162.501 54.8748 163.084C55.8245 163.651 56.9158 163.934 58.1486 163.934C59.3815 163.934 60.4311 163.626 61.2975 163.009C62.1805 162.393 62.8219 161.585 63.2218 160.585L65.8708 161.835C65.5543 162.668 65.0378 163.451 64.3214 164.184C63.605 164.917 62.722 165.508 61.6723 165.958C60.6394 166.408 59.4648 166.633 58.1486 166.633ZM74.5262 166.333V147.715H86.7967V150.339H77.4751V155.687H86.2969V158.311H77.4751V163.709H86.7967V166.333H74.5262ZM105.15 166.333V147.715H111.248C113.18 147.715 114.855 148.106 116.271 148.889C117.703 149.656 118.811 150.739 119.594 152.138C120.377 153.538 120.769 155.162 120.769 157.011C120.769 158.844 120.377 160.468 119.594 161.885C118.811 163.284 117.703 164.375 116.271 165.158C114.855 165.941 113.18 166.333 111.248 166.333H105.15ZM108.099 163.709H111.297C112.614 163.709 113.755 163.434 114.721 162.884C115.704 162.334 116.462 161.56 116.995 160.56C117.529 159.56 117.795 158.378 117.795 157.011C117.795 155.645 117.52 154.471 116.97 153.488C116.437 152.488 115.688 151.713 114.721 151.164C113.755 150.614 112.614 150.339 111.297 150.339H108.099V163.709ZM129.296 166.333V147.715H141.567V150.339H132.245V155.687H141.067V158.311H132.245V163.709H141.567V166.333H129.296ZM156.451 166.633C155.285 166.633 154.202 166.416 153.202 165.983C152.202 165.533 151.353 164.925 150.653 164.159C149.953 163.392 149.437 162.509 149.104 161.51L151.603 160.46C152.052 161.61 152.711 162.493 153.577 163.109C154.443 163.726 155.443 164.034 156.576 164.034C157.242 164.034 157.825 163.934 158.325 163.734C158.825 163.517 159.208 163.217 159.475 162.834C159.758 162.451 159.9 162.01 159.9 161.51C159.9 160.827 159.708 160.285 159.325 159.885C158.942 159.486 158.375 159.169 157.625 158.936L154.127 157.836C152.727 157.403 151.661 156.745 150.928 155.862C150.195 154.962 149.828 153.913 149.828 152.713C149.828 151.663 150.087 150.747 150.603 149.964C151.119 149.164 151.828 148.54 152.727 148.09C153.644 147.64 154.685 147.415 155.851 147.415C156.967 147.415 157.984 147.615 158.9 148.015C159.816 148.398 160.599 148.931 161.249 149.614C161.915 150.297 162.399 151.089 162.699 151.988L160.249 153.063C159.883 152.08 159.308 151.322 158.525 150.789C157.759 150.256 156.867 149.989 155.851 149.989C155.235 149.989 154.693 150.097 154.227 150.314C153.76 150.514 153.394 150.814 153.127 151.214C152.877 151.597 152.752 152.047 152.752 152.563C152.752 153.163 152.944 153.696 153.327 154.162C153.71 154.629 154.293 154.979 155.076 155.212L158.325 156.237C159.808 156.687 160.924 157.336 161.674 158.186C162.424 159.019 162.799 160.06 162.799 161.31C162.799 162.343 162.524 163.259 161.974 164.059C161.441 164.859 160.699 165.492 159.75 165.958C158.8 166.408 157.7 166.633 156.451 166.633ZM171.732 166.333V147.715H174.681V166.333H171.732ZM192.886 166.633C191.569 166.633 190.345 166.391 189.212 165.908C188.096 165.425 187.113 164.759 186.263 163.909C185.43 163.043 184.78 162.026 184.314 160.86C183.847 159.694 183.614 158.411 183.614 157.011C183.614 155.629 183.839 154.354 184.289 153.188C184.755 152.005 185.405 150.989 186.238 150.139C187.071 149.273 188.046 148.606 189.162 148.14C190.278 147.657 191.503 147.415 192.836 147.415C194.152 147.415 195.326 147.64 196.359 148.09C197.409 148.54 198.292 149.131 199.008 149.864C199.725 150.58 200.241 151.364 200.558 152.213L197.934 153.488C197.55 152.471 196.917 151.655 196.034 151.039C195.151 150.406 194.085 150.089 192.836 150.089C191.603 150.089 190.511 150.381 189.562 150.964C188.612 151.547 187.871 152.355 187.338 153.388C186.821 154.421 186.563 155.629 186.563 157.011C186.563 158.394 186.829 159.61 187.363 160.66C187.912 161.693 188.662 162.501 189.612 163.084C190.561 163.651 191.653 163.934 192.886 163.934C193.918 163.934 194.86 163.726 195.709 163.309C196.576 162.876 197.267 162.276 197.784 161.51C198.3 160.727 198.558 159.819 198.558 158.786V157.511L199.883 158.711H192.836V156.212H201.482V157.961C201.482 159.327 201.249 160.552 200.783 161.635C200.316 162.701 199.683 163.609 198.883 164.359C198.084 165.108 197.167 165.675 196.134 166.058C195.101 166.441 194.018 166.633 192.886 166.633ZM210.116 166.333V147.715H212.49L222.936 162.135L221.812 162.309V147.715H224.736V166.333H222.362L211.99 151.813L213.065 151.613V166.333H210.116Z" fill="#323E48"/>
<g clip-path="url(#clip0_167_910)">
<path d="M190.967 108.585L131.211 5.39225C129.123 1.79742 125.479 0 121.835 0C118.191 0 114.547 1.79742 112.459 5.39225L101.598 24.1065L99.7933 21.0051C97.7059 17.4103 94.0618 15.6129 90.4177 15.6129C86.7736 15.6129 83.1294 17.4103 81.042 21.0051L30.3074 108.585C26.1326 115.775 31.3334 124.762 39.683 124.762H181.591C189.906 124.762 195.107 115.775 190.967 108.585ZM138.463 95.5803C139.383 97.5892 139.277 99.8448 138.145 101.783C136.907 103.933 134.678 105.202 132.201 105.202H71.0649C68.5883 105.202 66.3594 103.933 65.1211 101.783C63.8828 99.6333 63.8828 97.0958 65.1211 94.9459L101.598 32.0011L138.428 95.5803H138.463ZM187.535 117.396C186.297 119.546 184.068 120.815 181.591 120.815H39.6477C37.1711 120.815 34.9421 119.546 33.7039 117.396C32.4656 115.246 32.4656 112.709 33.7039 110.559L84.4739 22.9787C85.7122 20.8289 87.9411 19.5601 90.4177 19.5601C92.8943 19.5601 95.1232 20.8289 96.3615 22.9787L99.298 28.0538L61.6893 92.9723C57.5145 100.162 62.7153 109.149 71.0649 109.149H132.201C135.704 109.149 138.64 107.563 140.586 105.202C141.329 104.321 141.895 103.334 142.32 102.241C143.346 99.6333 143.346 96.5671 142.001 93.7476L103.897 28.0538L115.891 7.36589C117.129 5.21603 119.358 3.94727 121.835 3.94727C124.312 3.94727 126.54 5.21603 127.779 7.36589L187.535 110.559C188.774 112.709 188.774 115.246 187.535 117.396Z" fill="#323E48"/>
</g>
<defs>
<clipPath id="clip0_167_910">
<rect width="166.285" height="126.877" fill="white" transform="translate(28.8354)"/>
</clipPath>
</defs>
</svg>
