<svg width="32" height="32" viewBox="0 0 32 32" fill="none" xmlns="http://www.w3.org/2000/svg">
<rect width="32" height="32" rx="4" fill="#1F262C"/>
<path d="M28.778 22.7373L19.6456 6.83116C19.3266 6.27705 18.7697 6 18.2128 6C17.6559 6 17.099 6.27705 16.7799 6.83116L15.12 9.71578L14.8442 9.23772C14.5252 8.68362 13.9683 8.40656 13.4114 8.40656C12.8545 8.40656 12.2976 8.68362 11.9786 9.23772L4.22495 22.7373C3.58693 23.8455 4.38175 25.2308 5.6578 25.2308H27.3452C28.6158 25.2308 29.4106 23.8455 28.778 22.7373ZM20.7541 20.7327C20.8947 21.0424 20.8784 21.39 20.7054 21.6888C20.5162 22.0202 20.1755 22.2158 19.797 22.2158H10.4538C10.0753 22.2158 9.73466 22.0202 9.54541 21.6888C9.35617 21.3575 9.35617 20.9663 9.54541 20.6349L15.12 10.9326L20.7487 20.7327H20.7541ZM28.2535 24.0954C28.0643 24.4268 27.7237 24.6223 27.3452 24.6223H5.65239C5.2739 24.6223 4.93327 24.4268 4.74402 24.0954C4.55478 23.764 4.55478 23.3729 4.74402 23.0415L12.503 9.54194C12.6923 9.21056 13.0329 9.01499 13.4114 9.01499C13.7899 9.01499 14.1305 9.21056 14.3198 9.54194L14.7686 10.3242L9.02094 20.3307C8.38291 21.4389 9.17774 22.8242 10.4538 22.8242H19.797C20.3323 22.8242 20.7811 22.5797 21.0785 22.2158C21.192 22.08 21.2785 21.9279 21.3434 21.7595C21.5002 21.3575 21.5002 20.8848 21.2948 20.4502L15.4715 10.3242L17.3044 7.13538C17.4937 6.804 17.8343 6.60843 18.2128 6.60843C18.5913 6.60843 18.9319 6.804 19.1212 7.13538L28.2535 23.0415C28.4428 23.3729 28.4428 23.764 28.2535 24.0954Z" fill="#F0F1F2" stroke="#F0F1F2" stroke-width="0.35"/>
</svg>
